/* XPM */
static char *aa6ad1c66c5f4b2ae4195760c235219c6jsSOOdilgga6qNR[] = {
/* columns rows colors chars-per-pixel */
"64 64 131 2 ",
"   c #4B4947",
".  c #4C4A48",
"X  c #4D4B49",
"o  c #4E4C4A",
"O  c #4F4C4A",
"+  c #4F4D4B",
"@  c #504E4C",
"#  c #514F4D",
"$  c #514E4C",
"%  c #4E4B49",
"&  c #52504E",
"*  c #53504E",
"=  c #53514F",
"-  c #545250",
";  c #555250",
":  c #555351",
">  c #565351",
",  c #565452",
"<  c #504D4B",
"1  c #524F4D",
"2  c #575452",
"3  c #54514F",
"4  c #4C4947",
"5  c #575553",
"6  c #4D4B48",
"7  c #585553",
"8  c #53504F",
"9  c #565352",
"0  c #545150",
"q  c #4D4A48",
"w  c #585654",
"e  c #555251",
"r  c #504D4C",
"t  c #595654",
"y  c #575552",
"u  c #4E4B4A",
"i  c #575453",
"p  c #52504F",
"a  c #565451",
"s  c #565453",
"d  c #4B4847",
"f  c #514F4E",
"g  c #4D4B4A",
"h  c #4A4846",
"j  c #4C4948",
"k  c #4D4A49",
"l  c #4E4C4B",
"z  c #4F4D4C",
"x  c #4B4846",
"c  c #494745",
"v  c #484644",
"b  c #494644",
"n  c #4A4745",
"m  c #4C4A49",
"M  c #4B4948",
"N  c #484645",
"B  c #494744",
"V  c #52504D",
"C  c #494746",
"Z  c #4A4847",
"A  c #4D4948",
"S  c #504E4D",
"D  c #524F4E",
"F  c #4A4746",
"G  c #494645",
"H  c #484543",
"J  c #474543",
"K  c #474544",
"L  c #474443",
"P  c #474442",
"I  c #464443",
"U  c #4F4C4B",
"Y  c #504C4B",
"T  c #4E4A49",
"R  c #464442",
"E  c #454342",
"W  c #454341",
"Q  c #464342",
"!  c #464341",
"~  c #454241",
"^  c #444241",
"/  c #444240",
"(  c #434140",
")  c #444140",
"_  c #43403F",
"`  c #42403F",
"'  c #43413F",
"]  c #413F3E",
"[  c #42403E",
"{  c #423F3E",
"}  c #403E3D",
"|  c #413E3D",
" . c #42413F",
".. c #413F3D",
"X. c #403E3C",
"o. c #3F3D3C",
"O. c #403D3C",
"+. c #3E3C3B",
"@. c #3F3D3B",
"#. c #3F3C3B",
"$. c #3D3B3A",
"%. c #3E3B3A",
"&. c #3E3C3A",
"*. c #484643",
"=. c #3C3A39",
"-. c #3D3B39",
";. c #41403E",
":. c #3B3938",
">. c #3C3938",
",. c #3D3A39",
"<. c #3C3A38",
"1. c #454240",
"2. c #44413F",
"3. c #403F3D",
"4. c #3E3B39",
"5. c #3F3C3A",
"6. c #403D3B",
"7. c #484544",
"8. c #434240",
"9. c #444341",
"0. c #413E3C",
"q. c #454442",
"w. c #44403F",
"e. c #494643",
"r. c #51504E",
"t. c #423F3D",
"y. c #535150",
"u. c #4C4846",
"i. c #545251",
"p. c #474644",
"a. c #534F4E",
/* pixels */
"  . . X X o O + @ @ # # # # # # # $ @ + + o % X . . .               . . X % o + @ # & * = - ; : > , , , , , > : ; - = & # @ < + ",
". . X X o O + @ $ # & & * * * & & 1 # @ @ + o % X . . .             . . X X o + @ $ 1 & = - ; : > , 2 2 2 2 2 , > : - = & # @ + ",
". . X o O + @ # 1 & = = 3 - 3 3 = * & # @ @ + o X X . .             4 . . X % O + @ # & = 3 ; : > , 2 2 5 5 2 2 , : ; 3 & # @ + ",
". X X o + @ # & * 3 - ; : : : : ; - = & # @ + O o X 6 . 4             . . X X o + @ $ # * = - : > , 2 5 7 7 5 5 2 , : - 8 & $ < ",
". X o O @ @ # * 3 ; : > , 9 9 9 ; ; 0 8 & # @ + o X X . .             . . q X o O < @ # & = - : , 2 5 7 w w w 7 5 2 > - = & # @ ",
". X o + @ # & = - e 9 > , 2 , , > ; - * & # r + o o X . .               . . X X o + @ # & = - : , 5 7 w t t t w 7 y , ; 3 & # @ ",
"X X o + @ # & 0 - : > 2 5 5 5 2 , > ; = & # @ + % u X . .               . . q X o + @ # & = - : , 5 7 w t t t t 7 5 , : 3 * # @ ",
"X X O + # 1 & = ; > , 5 7 7 7 7 2 , : 3 8 1 @ + o X . . .               4 . . X o + < $ & = - : , 5 7 w t t t t 7 5 , : 3 * # @ ",
"X % O < @ # & 3 ; , 2 i 5 7 5 5 2 > ; = p & @ + o X . 4 .                 . . X % o + @ # * 3 ; > y 7 w t t t w 7 y , ; 3 & # @ ",
"X q o + @ # & 3 - : a 2 5 i i s > > ; = & # < + o X . 4   d               . . X X o + @ # & = - : , 5 7 w w w 7 5 2 > - = & # @ ",
". q % O @ # # * 3 : e > , 2 , , > ; 3 # f # + o g X .     h d               . . X o O + $ 1 * 3 ; > 2 5 5 7 5 5 2 > : 3 * 1 $ < ",
". . X u + < # f * 3 0 - - & & * & # O o r < o o X . j     h h d             . . X X o + @ # & = 3 ; : , , , , , > ; - = & # @ + ",
"4 . k X o l < # f & = = * $ < + O % X j 4       k @ $ r . h h h               . . X o O < @ # & = - ; : : > > : ; - = & # @ < + ",
"    . X X o o + z $ # # 1 1 1 o . .   x x h c v b x   x   h h h n             . . X X o + @ $ # & = 3 - - ; - - 3 = * 1 # @ + o ",
"h       j . m % u O + z O X k j M   . k < r o d c c N B c b n . n h h           . . X X o + < @ # V & * = = = * & & # @ @ + o o ",
"C n C h Z     . . m k # X d A u S D + Z F F c n G c c C h m c c c d 4 x x       . . . X o o + < @ # # 1 1 & V 1 # # @ < + o o X ",
"c v N b G c C C h Z h z # $ u C C c G v N N v v v v v b c c F x c v b c c n n h + : @ . X X o O + < @ @ @ @ @ @ @ < + O o % X 6 ",
"H v H J K H K K v N v v N v K K K J L P I I I L J J v K N c c c c c x   4 x     < * O . 6 X X o o + + U Y < O U o o % X T k k . ",
"R I E E W E W E E Q R E ! E W ~ ^ W ^ / ^ ^ ~ E E I P J v c b c c c c c h h x         . . . k k X X X % % o o % X X X . . 4     ",
"W ^ ^ ( / ( ( ( ( ) ( ( ( _ _ ` ` ' ` _ ` ( ( / W R R J v J v N c c c c F h h x d d h h       4 . . . . q q q . . . . 4       h ",
"/ ' _ ` ] [ ] [ ] { ` ] ] ] ] ] ] ] } ] | ] { ' / / E I K J K v c c c c c c c c n h h h h x         4 . . . . j M d d d     h h ",
" .] } ..} X.} } o.} } } } O.o.o.o.o.O.o.} } ] ` ' ( W R R J J v c c c c c c c c c n h h h h h h   d Z h h h h h h h h n c c c c ",
"] ..X.o.o.o.+.+.o.o.o.@.#.@.#.+.+.+.@.#.+.o.} ] ` ( W W R J J v N c c c c c c c c c n h C c c c c n h h h h h C C G N N N c c c ",
"o.o.+.+.$.$.%.+.&.$.$.$.%.+.%.%.$.$.$.+.+.+.o.} [ ' ( ^ R R J v v c c c c c c c c v v v c c c c c N v v v v v v v v v v v v v *.",
"+.$.+.$.$.$.=.=.-.$.$.$.$.$.$.$.$.$.$.$.$.+.o.} ;.;.( ^ R R J v v c c c c G v v v v v K J J *.v v v K J J J J J J J J J J R I I ",
"$.-.=.$.=.=.=.=.=.=.=.=.=.=.=.=.=.=.=.$.$.+.o.} } ] ' ^ R R J v v G c c N v v v v K J J J I R R R J J I I R R R R R R W W W E R ",
"-.=.=.:.>.=.=.=.=.=.=.=.=.=.=.=.=.=.=.$.$.+.#.o.} ] ' / E I J v v v v v v v v J J J I R R R E E W W W W ^ ^ / / / / / / / ^ W W ",
"=.=.:.:.:.:.>.=.=.=.=.=.=.=.=.=.=.=.=.$.,.$.+.o.} ] ' ^ E R J K v v v v v K J J R R E W W W ^ ^ / / / ( ( ( ' ' ' ` ' ' ' ( ( / ",
"=.:.:.:.:.:.:.:.:.:.:.>.>.>.>.>.:.:.:.=.=.$.&.o.} ] ' / E I J K K v v v J J I W W / / ( ' ' ` ` ` ' ' ` ` ` ` [ ] ] ] ;.[ ` ` ' ",
"<.:.:.:.:.:.:.:.:.:.:.:.:.:.:.:.:.:.:.=.=.$.&.o.} ] ' / W R J J J v K J R 1./ 2.' ' ` [ ] ] ] ....[ ] ] ] ] ..} } } } } } ..] [ ",
":.:.:.:.:.:.:.:.:.:.:.:.:.:.:.:.:.:.:.=.=.-.&.o.} ] ' / W R J J J L W W ^ 1./ ( / ( ' ` [ ] ] ] ] ....} } } X.o.o.o.o.o.o.X.} ..",
":.:.:.:.:.:.:.:.:.:.:.:.:.:.:.:.:.:.:.=.=.-.&.@.} ] ' ^ E R J R ! W W E R W ^ ( ( ` ;.] 3.} } } } } X.X.o.o.o.@.+.+.+.+.+.@.o.X.",
":.:.:.:.:.:.:.:.:.:.:.:.:.:.:.:.:.:.:.=.=.-.&.@.} ;.' / E R P W W ! I R E ^ / ` [ ] } X.o.o.@.@.o.o.@.@.@.+.+.+.$.$.$.$.$.&.+.o.",
":.:.:.:.>.>.>.>.>.:.:.:.:.:.:.:.:.:.:.<.=.-.&.o.} ] ' / W R J J J J R R W / ' [ ] } o.@.+.+.+.+.+.+.+.+.+.+.&.$.$.=.=.=.=.$.&.+.",
"=.=.=.=.=.=.=.=.=.>.>.:.:.:.:.:.:.:.:.:.=.-.$.@.} ] ' / W R I I I I R W ^ ( ` ] } o.+.&.$.$.$.$.$.$.$.$.$.$.$.-.=.=.=.<.=.=.$.&.",
"=.=.=.=.=.=.=.=.=.=.=.=.=.>.:.:.:.:.:.:.=.-.$.@.} ] ' / W R R I R R E W / ' [ } X.@.&.$.-.=.=.=.$.$.$.$.$.$.$.=.=.:.:.:.:.=.-.$.",
"=.=.=.=.=.=.=.=.=.=.=.=.=.=.=.:.:.:.:.:.=.-.&.@.} ] ' / W R R R R R W W / ` ] } o.+.$.=.=.=.=.=.=.-.$.$.$.$.-.=.=.:.:.:.:.=.=.$.",
"$.$.$.$.$.$.$.$.$.$.=.=.=.=.=.=.>.:.:.<.=.-.&.o.} ] ' / W E R R R R W ^ ( ` ] X.@.&.$.=.:.:.:.:.=.=.=.%.%.%.4.,.=.:.:.:.:.=.-.$.",
"$.$.$.$.$.$.$.$.$.$.$.-.=.=.=.=.=.>.:.=.=.$.&.@.} ] ' / W W R R R R W ^ ( ` ..o.@.&.=.=.:.:.:.>.$.$.$.+.+.+.+.$.$.$.-.>.,.=.$.&.",
"o.+.+.+.+.+.+.+.+.%.$.$.$.=.=.=.=.=.>.=.=.$.&.o.} ] ` ( W E R R R R / ) ( ` ] o.@.&.-.=.:.>.=.=.$.$.$.+.+.+.+.+.$.$.$.$.$.+.%.+.",
"O.X.o.o.o.o.o.o.o.+.+.+.$.$.$.=.=.=.=.,.=.$.&.@.} ] ` ( ^ W R R E ^ 2.( ( ` ] X.o.+.$.,.-.=.=.$.$.$.+.+.+.+.+.+.+.+.+.+.+.@.o.} ",
"} ] } } } } } } O.o.o.+.+.%.$.$.=.=.=.$.=.$.+.o.} ] ` ( / W E R E ) / ^ / ` ] } o.+.+.&.$.$.$.$.%.o.o.o.X.} } X.o.o.o.@.o.o.} ..",
"_ ` ` [ [ [ ] ] ] } } o.o.+.+.$.$.=.=.$.$.$.+.@.X...[ ' / ^ W E / ) W W / ' [ 3.X.} o.+.+.+.5.o.o.o.X.} } } } } } } } } ..} ..] ",
"/ ^ ( ) ( _ ` ` [ ] X.} o.o.+.%.$.$.$.$.$.%.+.@.X...] ` ( ^ W / 2.^ W W ^ ( ` ] ] ..X.o.6.o.o.o.X.] ] ] [ [ ` ` ` ` { ] [ ` [ ` ",
"Q R Q E E ~ ' ` ` ] } ] } o.o.+.$.$.$.$.+.+.+.+.o.} ] ` ( / ^ 2./ E W W W / ( ' ` [ ..} ..} } ] ] [ _ ( ( ( / / / ( ( ( 2.( / ) ",
"c v N 7.H Q ~ ^ / ' ( ` ] } O.#.@.+.+.$.&.+.5.+.o.X.3.[ ' ( ' 2.W E E W W / ( ( ' ` ] [ ] ` ` ` ( ( ) / W W E E ~ 8./ ^ 9.E W E ",
"  x Z h C C v K L I W / ( [ ..} o.@.+.+.$.+.+.+.@.o.} ] ` ( / / W E E E W ^ W ^ ( ' ( ' ( ( / / W W ! R I E W W W ^ 9.W I R I R ",
"X X k m j 4 d h N K I E ( ` ] | } o.+.+.$.&.+.%.+.@.X.0.] [ ` ( W E R E E R R W ^ W ^ 9.^ W ~ E R E R E E Q R R K R R I v K J K ",
"U U U o u g m j Z C 7.! _ ` ] } o.#.5.&.$.$.$.%.$.&.#.o...] ` ( W E R R R R R E ! E ! E q.Q W W E Q I I H v n F c H K c G c N v ",
"@ S S @ @ z + u d c J E W / w.` } o.o.+.$.$.$.&.$.+.@.} ] ` ( / W R R R J J I R I W E R ! 9.E R I v C F Z Z Z   N e.h h C n n C ",
"p = 8 * & r.$ m d F v J 7.E ^ _ t.} o.+.&.=.$.$.$.$.@.o...` ' / W E R R J J J J I ! ^ W E Q K N C h F Z d 4 j Z b C     Z h h C ",
"= - - 0 y.= # u 4 x h Z b L ^ ( [ } o.$.$.=.=.$.=.$.+.o...[ ' / W R R R K J J K J K J v N v c C Z d M j m k X . F d q . M       ",
"; ; : : 8 @ z u X . X   C H E / ` } o.$.$.=.=.$.,.$.+.o...[ ' / W R R J K K J K J v v v G N n h Z 4 j m k X % g u.F F F h h n c ",
": : , > i.= # U O r u . h 7.R ^ ` ..o.$.$.=.=.$.4.$.+.X...` ' / W R R K v K H v v v b b c C C Z   j q k g o o O o k 4 x x x h C ",
": , 9 , 9 ; $ r & @ l 6 x N I ^ ` ] o.+.+.-.$.$.$.&.@.X.] ` ( ^ W R I v v v N v v c c c c n h x M j k X g l l O o u g k k m j M ",
"e > , 2 > 3 $ p * $ l m   c J ~ _ [ } @.+.$.$.+.&.+.o.} [ ' ( W E R I v v v N v v c N N C C C Z   k k g o l o U U l o g g k . j ",
"; > 9 > : : ; = * # U k d G J E ( ] ] o.#.+.+.o.+.o.} ] ` ( / W R I *.v v v c b v c N N C C F d M . k u u U U U l O o g g q m 4 ",
"3 ; : ; ; ; 3 = 1 @ O X   c p.Q ^ ` ..} o.o.o.@.o.X...[ ' / ^ E R J *.v v v c b N c N N C C F d M . q X u o U O l u o g g q m 4 ",
"0 3 - ; - 0 3 & # @ l X   c K R ~ ( [ ] } } } X.} ..[ ` ( ^ W R R J J v N v c v N c c c C C F d   j q k g u l O o u o g g q . j ",
"= 3 = = 3 3 & & $ @ l X   n N J E ) ' ` ] ] ] ..] [ ' ( ^ W E R J J K N c v c N c c c c G G h Z d M . k k u u o o % % k k m j M ",
"1 & a.& & & & $ @ U o m   h N J R W ^ ( ' ' ` ` ' ( / ^ W R R J J v v c c N c N c v b G c c F h d M M . k k u g g X k X X . . . ",
"$ # # 1 # # $ @ + O g .   h v v I R ^ ^ / / ( ( / / W W R R J J v v v b c c v c v N N N G N G C F Z d M . m m k . q q . . . 4   ",
"< @ @ @ < + + + o X X M   C c v J R E E E / ^ ^ W W E R I J J v v v v v c c c c N c c b c b c C C F Z   j j j m j j j . . M M   ",
"+ + + < < O o o o T . .   h c N H J I R R W W E R R R J J K v v v G c N C c c c c b N N N c c c C C h d   M M j M M M M M     Z "
};
