/* XPM */
static char *_7fa0c5de2874b0edf7a41c2f61ea0f4K03Dx3jgw5oVe0Ev[] = {
/* columns rows colors chars-per-pixel */
"64 64 184 2 ",
"   c #1B3F1E",
".  c #1E3C21",
"X  c #1F3723",
"o  c #262D27",
"O  c #2A252C",
"+  c #262C2A",
"@  c #2B2B2C",
"#  c #223424",
"$  c #253E25",
"%  c #293C26",
"&  c #2C332C",
"*  c #2C3C2A",
"=  c #273E28",
"-  c #33342D",
";  c #313C2D",
":  c #2A2431",
">  c #2E2935",
",  c #2F2C39",
"<  c #312C35",
"1  c #302D3A",
"2  c #2E3530",
"3  c #353632",
"4  c #3A3735",
"5  c #353C32",
"6  c #3A3C36",
"7  c #33313D",
"8  c #3A363C",
"9  c #373F3F",
"0  c #3D3B3A",
"q  c #403E3D",
"w  c #134917",
"e  c #1D451E",
"r  c #164D1A",
"t  c #1B4B1D",
"y  c #0F5615",
"u  c #0D5914",
"i  c #115416",
"p  c #115817",
"a  c #145119",
"s  c #135C19",
"d  c #185C1F",
"f  c #20441F",
"g  c #18611F",
"h  c #1F4520",
"j  c #1E4A20",
"k  c #1B5D21",
"l  c #244423",
"z  c #284227",
"x  c #224B22",
"c  c #2C432A",
"v  c #264E29",
"b  c #2B4A2B",
"n  c #31422E",
"m  c #245627",
"M  c #225A27",
"N  c #255B29",
"B  c #2C5D2F",
"V  c #2E4F31",
"C  c #354333",
"Z  c #3A4336",
"A  c #3D423A",
"S  c #374D39",
"D  c #39493E",
"F  c #2F5533",
"G  c #3A533C",
"H  c #3B5B3E",
"J  c #355734",
"K  c #1C6423",
"L  c #24652A",
"P  c #246C2B",
"I  c #296B2F",
"U  c #26702D",
"Y  c #2C6632",
"T  c #2C6E32",
"R  c #326537",
"E  c #39663D",
"W  c #2D7134",
"Q  c #2F7A36",
"!  c #307336",
"~  c #34753A",
"^  c #347B3B",
"/  c #387A3E",
"(  c #39703C",
")  c #42413E",
"_  c #353542",
"`  c #393643",
"'  c #373846",
"]  c #393945",
"[  c #3B3C4A",
"{  c #423E42",
"}  c #403F4B",
"|  c #3D4245",
" . c #3D414F",
".. c #3E5740",
"X. c #3E4250",
"o. c #3D6641",
"O. c #3F6B43",
"+. c #3B7E41",
"@. c #3E7243",
"#. c #454342",
"$. c #494745",
"%. c #454A43",
"&. c #4B4947",
"*. c #43434D",
"=. c #4D4B49",
"-. c #514E4C",
";. c #455549",
":. c #53514E",
">. c #434653",
",. c #454956",
"<. c #4B4C56",
"1. c #464C5A",
"2. c #4A4E5C",
"3. c #484752",
"4. c #504F5A",
"5. c #4C515D",
"6. c #565351",
"7. c #585553",
"8. c #595654",
"9. c #51545E",
"0. c #416D44",
"q. c #476D4A",
"w. c #417345",
"e. c #417B47",
"r. c #45754A",
"t. c #437C49",
"y. c #4D7951",
"u. c #55695B",
"i. c #4E5462",
"p. c #535663",
"a. c #545965",
"s. c #5A5C65",
"d. c #555C6B",
"f. c #595E6D",
"g. c #5C636D",
"h. c #5D6265",
"j. c #5D6473",
"k. c #62636C",
"l. c #626974",
"z. c #6A6D73",
"x. c #636B7B",
"c. c #686D79",
"v. c #6C727C",
"b. c #74777F",
"n. c #3D8443",
"m. c #3E8845",
"M. c #408A47",
"N. c #46844B",
"B. c #458B4C",
"V. c #488D4F",
"C. c #46904D",
"Z. c #4A8D51",
"A. c #4A9151",
"S. c #6C7482",
"D. c #6F7883",
"F. c #727B85",
"G. c #757E89",
"H. c #777B83",
"J. c #768187",
"K. c #7C848D",
"L. c #768088",
"P. c #7E8896",
"I. c #838B92",
"U. c #868F98",
"Y. c #879197",
"T. c #899196",
"R. c #8D959B",
"E. c #92999F",
"W. c #8A94A1",
"Q. c #8F9CAB",
"!. c #8995A4",
"~. c #939CA5",
"^. c #9A9FA3",
"/. c #919FAF",
"(. c #96A0A7",
"). c #9DA2A6",
"_. c #96A1A9",
"`. c #92A2B2",
"'. c #97A9BC",
"]. c #9DA9B2",
"[. c #A2ADB6",
"{. c #A4B2BC",
"}. c #9FB3C5",
"|. c #A2B6C9",
/* pixels */
"&.&.=.=.=.=.-.=.:.=.:.:.-.-.:.-.-.-.-.-.-.=.=.=.&.&.=.&.&.&.&.&.&.&.=.=.=.=.=.=.-.-.-.:.:.:.6.6.7.7.6.6.6.6.6.6.6.6.:.:.-.-.=.-.",
"=.=.=.=.=.=.-.-.:.:.:.:.:.:.:.:.:.:.-.-.-.-.-.=.=.=.&.=.&.=.&.=.&.&.$.=.=.=.=.-.-.-.-.:.:.6.:.6.:.7.7.7.7.6.7.6.6.6.6.:.:.-.:.=.",
"=.&.=.=.=.-.:.=.-.:.:.:.:.:.:.:.:.:.:.-.-.-.=.=.=.=.=.&.=.&.$.$.&.=.$.=.=.=.=.=.-.-.-.:.:.:.7.6.6.6.6.7.6.8.7.7.6.6.6.:.-.-.<.-.",
"&.=.=.=.-.=.-.:.:.:.:.:.7.6.6.:.:.6.:.:.-.-.-.=.=.=.=.&.) 6 6 q %.$.=.=.=.=.=.-.=.-.-.-.:.:.:.6.6.6.7.6.8.8.6.6.6.6.6.6.-.-.-.-.",
"=.=.=.:.-.-.:.:.-.6.6.6.7.6.6.6.6.6.:.:.:.-.-.=.-.&.$.Z c t B J ) - Z ) =.=.=.=.-.-.-.-.:.6.:.6.7.7.6.8.8.8.8.7.7.6.6.6.6.-.-.-.",
"&.=.=.=.=.:.:.:.6.6.6.6.6.7.6.7.6.6.:.:.-.-.-.-.=.=.A f i y n.n.J N.N.q $.=.=.=.=.=.-.-.:.:.:.6.6.6.7.8.8.8.8.8.7.7.6.6.-.:.-.-.",
"=.=.=.-.:.:.:.:.{ : : : : : : : { 7.6.-.6.-.-.=.&.Z c w y u P Q M.C.( 6 =.=.=.=.=.-.-.-.:.:.:.7.6.7.7.7.8.8.8.8.7.7.6.6.6.:.:.-.",
"=.=.-.=.=.:.:.:.#.: : : : O : : { 6.6.6.:.-.-.=.) f a i y u u M.C.K d n ) -.) =.=.-.-.-.:.:.:.{ : : : : : : : =.7.7.7.6.-.:.-.-.",
"&.-.=.-.-.8 > 1 _ } X.X.X.X.X.X._ 1 < 8 :.-.-.=.A e i y y y i I P i f c ) 7.) ) 7.-.-.-.7 < < _ X.X.X.X.X.X.X.1 < < { 6.-.-.-.-.",
"=.&.=.-.8 : _ [ ' 1 , , 1 1 1 , ] [ _ : 8 -.-.-.) f w i i y y p u i f z ) 6.6.-.) 7.) q : ' [ _ 1 , , , 1 1 1 _ [ 1 : { 6.-.-.-.",
"&.=.=.8 ] [ _ 1 _ ' [ ' ' ' [ [ _ 1 _ [ [ 8 =.=.%.Z * z l w p u u p f ) 6.) 6.) =.&.q q ' _ 1 _ [ [ ' [ [ [ [ _ _ _ ' ' { -.-.-.",
"=.&.8 _ >.[ , 1 ' _ _ _ _ _ _ _ _ 1 > ' >.' 8 8 &.$.%.%.A l w i i t ) ) ) 6.) 6.8 8 _ >.' : _ _ _ _ 1 _ _ _ _ _ 1 1 [ X._ 8 -.-.",
"&.=.: } i.' 1 _ _ : : : : : : : 1 ' 1 _ f.p.: : =.=.&.&.&.A $ z z n ) ) 6.) :.) : > X.d._ _ _ 1 : : : : : : : _ _ 1 } f.2.: -.-.",
"&.&.: >.j.} ' ' : : : : : : : : : _ [ } G.x.: : &.$.&.&.&.&.$.) ) ) 6.) ) :.) 6.: > X.x._ ' _ : : : : : : : : : [ _ <.G.f.: -.=.",
"&.=.: [ j.2.[ _ : , _ , , _ , , < 1 [ 9.K.x.> : &.&.&.&.$.&.&.$.) 6.) -.6.) 6.) : > >.S.} [ 1 , , , , , 1 1 1 : _ [ s.K.f.: =.=.",
"$.&.: [ f.D.p._ [ [ [ X.[ X.[ X.] ` 9.R.~.x.: O $.$.$.$.$.$.&.&.6.) -.) ) :.) :.: : [ j.F.1.` [ X.X.X.[ X.[ *.' _ k.R.W.f.O -.=.",
"$.$.: : [ f.S.U.b., 1 < > , > > s.Y.).[.|.x.: : $.$.#.$.$.&.&.$.$.$.$.&.&.&.&.&.: : : X.j.D.R.k., 1 < , , > , l.R.).{.'.d.: =.=.",
"#.$.: : : [ ,.d.K.~.E.J.J.G.J.J.D.F.U.[.|.x.: : $.$.$.#.$.$.$.$.$.$.$.&.&.&.&.&.: : : : X.,.f.P.~.E.G.G.L.L.J.S.G.R.{.'.f.: =.=.",
"#.#.: : : : > ' 1.i.i.1.2.2.2.5.1.g.D.U.W.1.: : #.#.#.#.$.$.$.$.&.$.$.$.&.$.&.&.: : : : , > [ i.5.i.2.2.2.2.1.1.j.G.R.I.>.: &.&.",
"#.#.: : : : : > , , , > 1 , , , , [ d.F.H., : : #.#.#.$.$.#.$.$.$.$.$.$.&.&.&.&.: : : : : : : > , , , < , , , ,  .j.G.z.> : &.&.",
"#.{ : : : : : : : : : : : : : : : _ i.x.5.: : : { 0 < : : : : : : : 8 { $.$.$.$.: : : : : : : : : : : : : : : : [ d.l.,.: : $.$.",
") 0 : _ > : : : : : : : : : : : : ' 1.2.] 2.: O q 8 < : : : : : : : 4 #.#.$.&.$.: : _ : : : : : : : : : : : : : ' 2.,.' >.: $.$.",
"q q : _ _ , : : : : : : : : : : : , _ >.S.x.: : 8 8 _ , 1 _ _ 1 1 1 1 { q { #.*.: : ' _ : : : : : : : : : : : : _ _ 2.S.f.: $.$.",
"q 0 : : _ _ 1 , : : : : : : : : : _ <.S.}.f.: > > _ ' [ [ [ [ [ [ [ ' 1 < > 8 #.: : : ' _ _ , : : : : : : O : : ] <.P.'.f.: $.$.",
"0 0 : : : _ [ _ , , 1 1 , _ , , 1 p.P.~.!._ : _ [ _ _ , 1 _ , 1 1 1 _ [ ' 1 , 8 : : : : ' [ _ , _ , , , , , 1 1 f.U.]./.p.: $.#.",
"0 0 : : : : : 7 X.X.X.X.[ [ X. .[ i.c.v.3.[ ' _ _ _ ' ' ] [ ' ' [ [ _ _ 7 _ [ _ : : : : : : ' [ [ X.X.X.X.X.X.[ a.S.T.G.' : #.#.",
"0 4 : : : : : : : : : : : : : : : 1 [ 1.' >.] 1 > _ _ ' ' _ _ ' _ ' _ 7 , 7 [  .: : : : : : : : : : : : : : : : ' d.S.f.O : #.{ ",
"0 0 : : : : : : : : : : : : : : : : > _ >.5._ 1 _ _ 1 : : > : : > : 1 _ 7 1  .i.: : : : : : : : : : : : : : : : [ d.f.[ : : { #.",
"4 4 :  ., : : : : : : : : : : : : : > 1 1.x.1 ' _ > : : : : : : : : : 1 _ _ 5.c.: : X.: : : : : : : : : : : : : ' ,.[ [ a.: { q ",
"0 0 : > 1 > : : : : : : : : : : : : : 1 1.S.} [ _ > : > : > > > > > : 1 ] ] a.F.: : , [ > : : : : : : : : : : : , 1 f.!.f.: q ) ",
"4 4 : ..@.3 ' 7 : : : : : : : : : : : _ 1.S.d.>._ 1 _ ' ' ' ' ' _ ' 7 < _ 9.b.I.: : : , ' ' , : : : : : : : : : 1.v.~.'.f.: q q ",
"4 0 : ..V.O., 7 ' ' ' ' ' ' ' ' _ : : 1 [ d.S.d.p.4.} _ ' _ ' _ _ _ } 9.k.K._.W.: : : : _ _ ' ' ' ' ' ' _ [ _ [ s.K.~.W.1.: q q ",
"4 4 O O w.t.w.G _ | ..8 _ < _ _ ' : : : , [ d.j.v.b.h.<.<.*.3.*.3.3.p.v.I.E.{.`.: : : : O O 1 _ _ _ ' _ _ , 1 G ;.j.K.g.& o 3 0 ",
"0 3 # X & t.B.C : C V.@.& @.5 : : : : : : , [ >.a.x.H.F.v.l.g.g.g.j.j.v.K.E.[./.1 > : O o.H O : : : : : 5 @.E B.0.*.c.b y i z 0 ",
"0 % i i v B.w.O : + O.B.N.V.5 : : : : : : : , _ [ 2.s.s.a.5.i.i.p.i.5.a.x.K.~.P.} , > O e.B.2 : : : : : 2 N.A.V.S ] | h y y $ 6 ",
"8 * y u W ~ R O : : @ E B.@.@ : : : : : : : : : 1 7 _ 7 _ 7 _ 7 7 _ _ [ a.x.J.z.[ > 7 # Y ~ V O : : : : : 2 B.+.N t e * h h * 0 ",
"4 3 t y g W Y o o : O T ~ v . X # : : : : : : : : : : : : : : : : : : 1 X.j.x.5.1 : O = k T Y o : o X o +   N ! P y a & - 3 4 0 ",
"0 4 * a p d d t i w e T T y a y i X : : > : : : : : : : : : : : : : : , X.d.5. ._ > : 3 z N k X # r i r X w r I L a e - 4 0 0 0 ",
"0 0 4 & $ e t r y i r s s y i y y X : , [ > : : : : O : : : : : : : : ,  .X. .,.p._ : 0 3 $ e * & r i r * h h & & - - 4 0 0 0 0 ",
"q 0 0 0 0 3 & = j h = h z $ $ l l + : > 1 [ > : : : : : : : : : : : : : > _ x.P.j.' : 4 4 4 3 4 4 * l * 6 5 4 0 0 0 0 0 0 0 0 0 ",
"q q q q q 0 q 0 3 4 0 5 4 0 4 - 6 : : : : _ ' ' , > : : : : : : : : : 7 9.v.~.`.x.' : 0 0 4 0 0 0 6 0 0 0 0 0 q 0 0 q q 0 q 0 q ",
"q q q q q q q 0 q q 0 0 0 0 0 0 4 : : : : : 7 _ _ _ _ _ _ _ _ _ _ _ _ X.l.K.~.!.d.7 : 0 0 0 0 0 0 q 0 q q q q q 0 3 % % 4 0 q q ",
"q ) ) q ) q q q q q q q q 0 0 0 0 : : : : : > > , ' _ ' _ ' _ _ ] _ '  .d.F.U.F.3.> O 4 0 0 q q 0 n % * ; q - & - e p i % 0 q q ",
") #.#.q #.q #.q q q q q q 0 q 0 0 : O : : : : : > , , , , , , , 1 1 1 _ 2.l.D.g.8 C B.) q q 0 q 6 l r r f z L n.L p u u r - ) ) ",
"#.#.#.{ #.#.{ ) ) q q q q 0 q 0 0 C t.5 : : : : : : : : : : : : O : : 1 [ *.p.,.@ B.V.S q q q q % a p u p p g M.n.Q u p u z q ) ",
"&.$.$.$.#.$.$.#.#.{ #.q q q q q 0 5 B.w.> > : : : : : : : : : : : : : 1 D r.;. ...Z.H 4 q q ) ) ; r u u u u u ^ ! U u U P r ; ) ",
"&.&.$.$.&.&.$.#.#.$.#.#.q q q q 0 O N.N.> 7 : @ O O : : : : : : : : : > 6 V.N.%.r.Z.& 0 ) #.) ) A z a u u u u m.W T I +.M.a z ) ",
"=.=.=.=.=.&.&.&.$.#.#.#.#.#.q q q O w.V.@  .5 N.O.O : : : : : : : : : O < ..A.y.N.B.. c 0 ) $.) ) c t u p i i ^ ! W ! U P i f 6 ",
"-.=.=.-.%.=.=.=.&.&.$.#.#.) ) 0 - O E V.O O 6 e.Z.0.O : : : : : : : O 0.q.z.Z.Z.^ M.K i * #.#.$.$.n e p p a p p g U K u p i f 6 ",
"-.-.-.-.-.-.=.=.&.&.$.$.#.0 * l t   w.V.t.@ > > w.V.0.7 [  .[  . .[ 7 r.V.:.y.B./ M.g i - $.#.#.$.n f p i i u u u u u u p f n ) ",
":.-.-.-.-.-.-.=.=.=.&.$.$.* r i u i F B.V.@ : O > r.V.G , _ _ 1 7 7 7 G V.r.u.^ ^ g y e 6 $.$.$.&.) n f t p u u u u u u r 6 %.&.",
":.6.:.=.Z b z Z %.-.&.&.$.; a i y i m M.( o : : O - V.t.O > : : > : : < t./ E ! W u i ; q $.$.&.%.=.) A 6 r u p u u u i ; $.&.%.",
"6.6.6.Z N K i t Z :.%.&.%.A z f i y i ! T # O O : c @.Q * : : : : : : < 0.M.! ! s u e 5 $.$.$.&.%.-.=.=.#.5 c e p p a ; ) &.&.&.",
"6.6.:.c Q M.M.P b %.=.-.&.$.) 4 e p y I T r # O : c R W ! @.H : : : O > D V.! ! p p % ) $.&.$.&.&.&.&.=.&.-.&.0 z z 6 #.-.=.=.&.",
"6.6.-.z P B.C.L f Z ) -.&.$.$.) ; c t m L u w o : : & +.! +.S : : : : @ f / ! g u p f C $.$.$.&.&.&.=.=.-.-.=.=.$.=.&.=.=.=.=.&.",
"6.6.:.z ^ ~ K u i t c #.&.$.$.) ) = i r r y i t $ # h j ! ! & + # # o $ i g L u u p i ; &.$.&.&.&.-.=.=.=.=.=.-.-.=.-.&.-.=.&.=.",
"6.6.6.b ! ! u u p p f Z $.$.$.) ) ; f f z t a p e r p g ! ! Y f y a i t i y r i p i f 6 $.$.=.$.=.-.=.=.=.-.=.-.=.=.&.-.=.=.=.&.",
":.6.:.C M I u p p a f ) =.%.$.$.q q 4 6 0 * % $ % t u p g v m a a i y u t c ; % f % ) ) $.$.$.$.=.{ =.=.=.=.-.=.=.-.-.&.=.&.=.&.",
":.:.:.) n m f x b n Z %.$.$.$.) $.q ) q q q q 0 0 * p u i c f a l z h b c ) &.$.$.$.$.$.$.$.$.=.&.=.=.=.=.=.3.-.=.-.=.-.=.&.&.=.",
":.:.:.:.=.C A A &.;.=.=.&.$.$.$.) $.) { q q q q ) 0 % f z 6 5 ; A #.0 #.$.$.$.$.$.$.$.$.$.$.=.$.=.{ =.=.=.=.=.=.-.&.&.=.=.=.=.&.",
":.:.:.-.-.:.:.-.-.-.-.&.&.$.$.$.) #.#.q ) q q ) ) ) ) 6 q ) $.$.#.$.$.&.$.$.$.$.$.$.$.$.$.&.$.&.=.=.&.=.=.=.=.=.=.=.=.=.=.=.&.=.",
"-.:.-.:.-.-.-.-.-.-.&.=.=.$.$.$.#.$.) #.#.#.#.q ) ) #.) $.) $.) $.$.#.$.$.$.$.$.&.{ $.$.$.&.{ &.&.&.=.{ =.=.=.=.=.=.=.$.=.&.&.&.",
"-.-.-.-.-.=.-.-.&.&.=.&.&.$.$.$.#.#.#.#.#.#.#.#.#.) #.#.#.$.$.#.$.$.$.#.&.&.$.$.$.$.$.$.$.$.=.&.&.=.=.&.=.$.=.=.$.=.=.=.=.=.=.&.",
"-.&.-.-.-.-.&.&.-.-.=.&.&.$.$.$.$.$.#.#.#.#.#.) $.#.#.$.#.#.$.$.$.$.$.$.$.%.$.$.$.$.$.$.$.$.{ &.&.{ &.&.$.=.$.$.=.$.&.=.$.&.&.&."
};
