/* XPM */
static char *result[] = {
/* columns rows colors chars-per-pixel */
"64 64 224 2 ",
"   c #4B4947",
".  c #4C4A48",
"X  c #4D4B49",
"o  c #4E4C4A",
"O  c #4F4C4A",
"+  c #4F4D4B",
"@  c #504E4C",
"#  c #514F4D",
"$  c #514E4C",
"%  c #4E4B49",
"&  c #52504E",
"*  c #53504E",
"=  c #53514F",
"-  c #545250",
";  c #555250",
":  c #555351",
">  c #565351",
",  c #565452",
"<  c #504D4B",
"1  c #524F4D",
"2  c #575452",
"3  c #54514F",
"4  c #4C4947",
"5  c #575553",
"6  c #4D4B48",
"7  c #585553",
"8  c #53504F",
"9  c #565352",
"0  c #545150",
"q  c #4D4A48",
"w  c #585654",
"e  c #555251",
"r  c #504D4C",
"t  c #595654",
"y  c #575552",
"u  c #4E4B4A",
"i  c #575453",
"p  c #52504F",
"a  c #565451",
"s  c #565453",
"d  c #4B4847",
"f  c #514F4E",
"g  c #4D4B4A",
"h  c #4A4846",
"j  c #4C4948",
"k  c #4D4A49",
"l  c #4E4C4B",
"z  c #4F4D4C",
"x  c #4B4846",
"c  c #494745",
"v  c #484644",
"b  c #494644",
"n  c #4A4745",
"m  c #4C4A49",
"M  c #4B4948",
"N  c #484645",
"B  c #494744",
"V  c #52504D",
"C  c #494746",
"Z  c #4A4847",
"A  c #4D4948",
"S  c #504E4D",
"D  c #524F4E",
"F  c #4A4746",
"G  c #494645",
"H  c #3F3D3B",
"J  c #2F2E2D",
"K  c #2D2C2B",
"L  c #2E2C2C",
"P  c #2F2D2C",
"I  c #2E2C2B",
"U  c #2E2D2C",
"Y  c #2F2E2C",
"T  c #302F2E",
"R  c #312F2E",
"E  c #373534",
"W  c gray1",
"Q  c #121211",
"!  c #484543",
"~  c #474543",
"^  c #474544",
"/  c #474443",
"(  c #474442",
")  c #464443",
"_  c #2C2B2B",
"`  c #4F4C4B",
"'  c #504C4B",
"]  c #4E4A49",
"[  c #464442",
"{  c #454342",
"}  c #454341",
"|  c #464342",
" . c #464341",
".. c #454241",
"X. c #444241",
"o. c #444240",
"O. c #2C2B2A",
"+. c #F8FC8F",
"@. c #F9EB4A",
"#. c #65601F",
"$. c #121111",
"%. c #434140",
"&. c #444140",
"*. c #43403F",
"=. c #42403F",
"-. c #43413F",
";. c #413F3E",
":. c #42403E",
">. c #423F3E",
",. c #403E3D",
"<. c #413E3D",
"1. c #1D1D1C",
"2. c #1E1D1D",
"3. c #4E4F34",
"4. c #979857",
"5. c #F4FA4E",
"6. c #F7F557",
"7. c #F8F366",
"8. c #444127",
"9. c #343231",
"0. c #42413F",
"q. c #413F3D",
"w. c #403E3C",
"e. c #3F3D3C",
"r. c #403D3C",
"t. c #65663B",
"y. c #F1F823",
"u. c #F4F232",
"i. c #3E3C3B",
"p. c #3F3C3B",
"a. c #F4F729",
"s. c #F3F62A",
"d. c #E2E031",
"f. c #C8BD3C",
"g. c #111110",
"h. c #323130",
"j. c #3D3B3A",
"k. c #3E3B3A",
"l. c #3E3C3A",
"z. c #F7ED42",
"x. c #978E2E",
"c. c #484643",
"v. c #3C3A39",
"b. c #3D3B39",
"n. c #41403E",
"m. c gray6",
"M. c #C7CA72",
"N. c #DBDC5B",
"B. c #F2F939",
"V. c #5B571B",
"C. c #343111",
"Z. c #363421",
"A. c #393837",
"S. c #393836",
"D. c #3B3938",
"F. c #3C3938",
"G. c #272625",
"H. c #F5FA64",
"J. c #3D3A39",
"K. c #F3F62C",
"L. c #211E0B",
"P. c #131312",
"I. c #2B2A29",
"U. c #2B2929",
"Y. c #2B2928",
"T. c #3A3937",
"R. c #F6EF3B",
"E. c #292827",
"W. c #3C3A38",
"Q. c #282726",
"!. c #0F0E0E",
"~. c #62650F",
"^. c #F9F473",
"/. c #282626",
"(. c #2A2A08",
"). c #F4FA57",
"_. c #F7F261",
"`. c #BEB749",
"'. c #282625",
"]. c #353433",
"[. c #1B1B1A",
"{. c #1B1A1A",
"}. c #1D1C1B",
"|. c #4D4E33",
" X c #F5F342",
".X c #D9D335",
"XX c #343224",
"oX c #3E3B39",
"OX c #353331",
"+X c #A39A33",
"@X c #100F0F",
"#X c #373535",
"$X c #10100F",
"%X c #2C2A29",
"&X c #0F0F0E",
"*X c #DBD768",
"=X c #F9EF57",
"-X c #353325",
";X c #383635",
":X c #403F3D",
">X c #3F3C3A",
",X c #2A2928",
"<X c #403D3B",
"1X c #262525",
"2X c #D2CD57",
"3X c #44413F",
"4X c #484544",
"5X c #434240",
"6X c #444341",
"7X c #1C1B1B",
"8X c #1C1B1A",
"9X c #454442",
"0X c #44403F",
"qX c #2A280E",
"wX c #494643",
"eX c #51504E",
"rX c #423F3D",
"tX c #0E0E0E",
"yX c #535150",
"uX c #181716",
"iX c #4C4846",
"pX c #545251",
"aX c #474644",
"sX c #534F4E",
/* pixels */
"  . . X X o O + @ @ # # # # # # # $ @ + + o % X . . .               . . X % o + @ # & * = - ; : > , , , , , > : ; - = & # @ < + ",
". . X X o O + @ $ # & & * * * & & 1 # @ @ + o % X . . .             . . X X o + @ $ 1 & = - ; : > , 2 2 2 2 2 , > : - = & # @ + ",
". . X o O + @ # 1 & = = 3 - 3 3 = * & # @ @ + o X X . .             4 . . X % O + @ # & = 3 ; : > , 2 2 5 5 2 2 , : ; 3 & # @ + ",
". X X o + @ # & * 3 - ; : : : : ; - = & # @ + O o X 6 . 4             . . X X o + @ $ # * = - : > , 2 5 7 7 5 5 2 , : - 8 & $ < ",
". X o O @ @ # * 3 ; : > , 9 9 9 ; ; 0 8 & # @ + o X X . .             . . q X o O < @ # & = - : , 2 5 7 w w w 7 5 2 > - = & # @ ",
". X o + @ # & = - e 9 > , 2 , , > ; - * & # r + o o X . .               . . X X o + @ # & = - : , 5 7 w t t t w 7 y , ; 3 & # @ ",
"X X o + @ # & 0 - : > 2 5 5 5 2 , > ; = & # @ + % u X . .               . . q X o + @ # & = - : , 5 7 w t t t t 7 5 , : 3 * # @ ",
"X X O + # 1 & = ; > , 5 7 7 7 7 2 , : 3 8 1 @ + o X . . .               4 . . X o + < $ & = - : , 5 7 w t t t t 7 5 , : 3 * # @ ",
"X % O < @ # & 3 ; , 2 i 5 7 5 5 2 > ; = p & @ + o X . 4 .                 . . X % o + @ # * 3 ; > y 7 w t t t w 7 y , ; 3 & # @ ",
"X q o + @ # & 3 - : a 2 5 i i s > > ; = & # < + o X . 4   d               . . X X o + @ # & = - : , 5 7 w w w 7 5 2 > - = & # @ ",
". q % O @ # # * 3 : e > , 2 , , > ; 3 # f # + o g X .     h d               . . X o O + $ 1 * 3 ; > 2 5 5 7 5 5 2 > : 3 * 1 $ < ",
". . X u + < # f * 3 0 - - & & * & # O o r < o o X . j     h h d             . . X X o + @ # & = 3 ; : , , , , , > ; - = & # @ + ",
"4 . k X o l < # f & = = * $ < + O % X j 4       k @ $ r . h h h               . . X o O < @ # & = - ; : : > > : ; - = & # @ < + ",
"    . X X o o + z $ # # 1 1 1 o . .   x x h c v b x   x   h h h n             . . X X o + @ $ # & = 3 - - ; - - 3 = * 1 # @ + o ",
"h       j . m % u O + z O X k j M   . k < r o d c c N B c b n . n h h           . . X X o + < @ # V & * = = = * & & # @ @ + o o ",
"C n C h Z     . . m k # X d A u S D + Z F F c n G c c C H J K K K L P I I U U U Y Y Y J T T R E @ # # 1 1 & V 1 # # @ < + o o X ",
"c v N b G c C C h Z h z # $ u C C c G v N N v v v v v b K W W W W W W W W W W W W W W W W W W Q + < @ @ @ @ @ @ @ < + O o % X 6 ",
"! v ! ~ ^ ! ^ ^ v N v v N v ^ ^ ^ ~ / ( ) ) ) / ~ ~ v ^ _ W W W W W W W W W W W W W W W W W W Q o + + ` ' < O ` o o % X ] k k . ",
"[ ) { { } { } { { | [ {  .{ } ..X.} X.o.X.X...{ { ) ( ~ O.W W +.+.+.+.+.+.+.+.+.+.+.+.@.@.#.W $.X X X % % o o % X X X . . 4     ",
"} X.X.%.o.%.%.%.%.&.%.%.%.*.*.=.=.-.=.*.=.%.%.o.} [ [ ~ O.W W +.+.+.+.+.+.+.+.+.+.+.+.@.@.#.W $.. . . . q q q . . . . 4       h ",
"o.-.*.=.;.:.;.:.;.>.=.;.;.;.;.;.;.;.,.;.<.;.>.-.o.o.1.2.3.4.4.5.5.5.5.5.5.5.5.5.6.7.7.#.#.8.U 9.    4 . . . . j M d d d     h h ",
"0.;.,.q.,.w.,.,.e.,.,.,.,.r.e.e.e.e.r.e.,.,.;.=.-.%.W W t.+.+.y.y.y.y.y.y.y.y.y.u.@.@.W W I h h   d Z h h h h h h h h n c c c c ",
";.q.w.e.e.e.i.i.e.e.e.H p.H p.i.i.i.H p.i.e.,.;.=.%.W W t.+.+.y.y.y.y.y.y.y.a.s.d.f.f.g.g.h.c c c n h h h h h C C G N N N c c c ",
"e.e.i.i.j.j.k.i.l.j.j.j.k.i.k.k.j.j.j.i.i.i.e.,.:.-.W W t.+.+.y.y.y.y.y.y.y.z.@.x.W W v c c c c c N v v v v v v v v v v v v v c.",
"i.j.i.j.j.j.v.v.b.j.j.j.j.j.j.j.j.j.j.j.j.i.e.,.n.n.W W t.+.+.y.y.y.y.y.y.y.z.@.x.W W ^ ~ ~ c.v v v ^ ~ ~ ~ ~ ~ ~ ~ ~ ~ ~ [ ) ) ",
"j.b.v.j.v.v.v.v.v.v.v.v.v.v.v.v.v.v.v.j.j.i.e.O.m.m.M.M.N.B.B.y.y.y.y.a.z.z.V.C.Z.A.S.~ ~ ) [ [ [ ~ ~ ) ) [ [ [ [ [ [ } } } { [ ",
"b.v.v.D.F.v.v.v.v.v.v.v.v.v.v.v.v.v.v.j.j.i.p.G.W W +.+.H.y.y.y.y.y.y.s.@.@.C.W 2.~ ) [ [ [ { { } } } } X.X.o.o.o.o.o.o.o.X.} } ",
"v.v.D.D.D.D.F.v.v.v.v.v.v.v.v.v.v.v.v.j.J.j.i.G.W W +.+.H.y.y.y.y.K.u.d.x.x.L.W P.I.U.Y.Y.T.X.X.o.o.o.%.%.%.-.-.-.=.-.-.-.%.%.o.",
"v.D.D.D.D.D.D.D.D.D.D.F.F.F.F.F.D.D.D.v.v.j.l.G.W W +.+.H.y.y.y.y.R.@.f.W W W W W W W W W E.=.=.=.-.-.=.=.=.=.:.;.;.;.n.:.=.=.-.",
"W.D.D.D.D.D.D.D.D.D.D.D.D.D.D.D.D.D.D.v.v.j.l.G.W W +.+.H.y.y.y.y.R.@.f.W W W W W W W W W Q.;.q.q.:.;.;.;.;.q.,.,.,.,.,.,.q.;.:.",
"D.D.D.D.D.D.D.D.D.D.D.D.D.D.D.D.D.D.D.v.v.!.W ~.y.y.y.y.y.y.y.y.y.H.+.+.+.+.+.+.^.@.@.W W Q.;.;.;.q.q.,.,.,.w.e.e.e.e.e.e.w.,.q.",
"D.D.D.D.D.D.D.D.D.D.D.D.D.D.D.D.D.D.D.v.v.!.W ~.y.y.y.y.y.y.y.y.y.H.+.+.+.+.+.+.^.@.@.W W /.,.,.,.,.w.w.e.e.e.H i.i.i.i.i.H e.w.",
"D.D.D.D.D.D.D.D.D.D.D.D.D.D.D.D.D.D.D.v.v.!.W (.~.~.~.~.~.~.~.H.H.).5.5.5.5._.7.`.#.#.'.G.].H H e.e.H H H i.i.i.j.j.j.j.j.l.i.e.",
"D.D.D.D.F.F.F.F.F.D.D.D.D.D.D.D.D.D.D.W.v.!.W W W W W W W W W +.+.5.y.y.y.y.z.@.x.W W H i.i.i.i.i.i.i.i.i.i.l.j.j.v.v.v.v.j.l.i.",
"v.v.v.v.v.v.v.v.v.F.F.D.D.D.D.D.D.D.D.D.v.!.W W W W W W W W W +.+.5.y.y.y.y.z.@.x.W W l.j.j.j.j.j.j.j.j.j.j.j.b.v.v.v.W.v.v.j.l.",
"v.v.v.v.v.v.v.v.v.v.v.v.v.F.D.D.D.D.D.D.v.b.j.H ,.;.-.o.Y.W W +.+.5.y.s.@.@.C.W [.H l.j.b.v.v.v.j.j.j.j.j.j.j.v.v.D.D.D.D.v.b.j.",
"v.v.v.v.v.v.v.v.v.v.v.v.v.v.v.D.D.D.D.D.v.b.l.H ,.;.-.o.Y.W W +.+.5.y.s.@.@.C.W {.i.j.v.v.v.v.v.v.b.j.j.j.j.b.v.v.D.D.D.D.v.v.j.",
"j.j.j.j.j.j.j.j.j.j.v.v.v.v.v.v.F.D.D.W.v.b.l.e.,.;.}.}.|.4.4.5.5. XR..X#.#.XX'.R l.j.v.D.D.D.D.v.v.v.k.k.k.oXJ.v.D.D.D.D.v.b.j.",
"j.j.j.j.j.j.j.j.j.j.j.b.v.v.v.v.v.F.D.v.v.j.l.H ,.;.W W t.+.+.y.y.R.@.f.W W OXe.H l.v.v.D.D.D.F.j.j.j.i.i.i.i.j.j.j.b.F.J.v.j.l.",
"e.i.i.i.i.i.i.i.i.k.j.j.j.v.v.v.v.v.F.v.v.j.l.e.,.;.W W t.+.+.s.s..Xf.+X@X@X#Xe.H l.b.v.D.F.v.v.j.j.j.i.i.i.i.i.j.j.j.j.j.i.k.i.",
"r.w.e.e.e.e.e.e.e.i.i.i.j.j.j.v.v.v.v.J.v.j.l.H ,.;.W W t.+.+.@.@.#.W @X%.=.;.w.e.i.j.J.b.v.v.j.j.j.i.i.i.i.i.i.i.i.i.i.i.H e.,.",
",.;.,.,.,.,.,.,.r.e.e.i.i.k.j.j.v.v.v.j.v.j.i.e.,.;.W W t.+.+.@.@.#.W $Xo.=.;.,.e.i.i.l.j.j.j.j.k.e.e.e.w.,.,.w.e.e.e.H e.e.,.q.",
"*.=.=.:.:.:.;.;.;.,.,.e.e.i.i.j.j.v.v.j.j.j.i.%X&Xm.M.M.*X=X=XC.C.-X;XT.o.-.:.:Xw.,.e.i.i.i.>Xe.e.e.w.,.,.,.,.,.,.,.,.,.q.,.q.;.",
"o.X.%.&.%.*.=.=.:.;.w.,.e.e.i.k.j.j.j.j.j.k.i.G.W W +.+.^.@.@.W W ,X} } X.%.=.;.;.q.w.e.<Xe.e.e.w.;.;.;.:.:.=.=.=.=.>.;.:.=.:.=.",
"| [ | { { ..-.=.=.;.,.;.,.e.e.i.j.j.j.j.i.i.i.1XW W ^.^.2Xx.x.}.}.].} } } o.%.-.=.:.q.,.q.,.,.;.;.:.*.%.%.%.o.o.o.%.%.%.3X%.o.&.",
"c v N 4X! | ..X.o.-.%.=.;.,.r.p.H i.i.j.l.i.>X1XW W @.@.x.W W 3X} { { } } o.%.%.-.=.;.:.;.=.=.=.%.%.&.o.} } { { ..5Xo.X.6X{ } { ",
"  x Z h C C v ^ / ) } o.%.:.q.,.e.H i.i.j.i.i.1XW W @.@.x.W W o.} { { { } X.} X.%.-.%.-.%.%.o.o.} }  .[ ) { } } } X.6X} ) [ ) [ ",
"X X k m j 4 d h N ^ ) { %.=.;.<.,.e.i.i.j.!.W #.@.@.W W 7X:.=.%.} { [ { { [ [ } X.} X.6XX.} ..{ [ { [ { { | [ [ ^ [ [ ) v ^ ~ ^ ",
"` ` ` o u g m j Z C 4X .*.=.;.,.e.p.>Xl.j.!.W #.@.@.W W 8X;.=.%.} { [ [ [ [ [ {  .{  .{ 9X| } } { | ) ) ! v n F c ! ^ c G c N v ",
"@ S S @ @ z + u d c ~ { } o.0X=.,.e.e.i.j.!.W qX#.#.G./.h.=.%.o.} [ [ [ ~ ~ ) [ ) } { [  .6X{ [ ) v C F Z Z Z   N wXh h C n n C ",
"p = 8 * & eX$ m d F v ~ 4X{ X.*.rX,.e.i.l.tXW W W W H e.q.=.-.o.} { [ [ ~ ~ ~ ~ )  .X.} { | ^ N C h F Z d 4 j Z b C     Z h h C ",
"= - - 0 yX= # u 4 x h Z b / X.%.:.,.e.j.j.uXtX!.tX!.i.e.q.:.-.o.} [ [ [ ^ ~ ~ ^ ~ ^ ~ v N v c C Z d M j m k X . F d q . M       ",
"; ; : : 8 @ z u X . X   C ! { o.=.,.e.j.j.v.v.j.J.j.i.e.q.:.-.o.} [ [ ~ ^ ^ ~ ^ ~ v v v G N n h Z 4 j m k X % g iXF F F h h n c ",
": : , > pX= # ` O r u . h 4X[ X.=.q.e.j.j.v.v.j.oXj.i.w.q.=.-.o.} [ [ ^ v ^ ! v v v b b c C C Z   j q k g o o O o k 4 x x x h C ",
": , 9 , 9 ; $ r & @ l 6 x N ) X.=.;.e.i.i.b.j.j.j.l.H w.;.=.%.X.} [ ) v v v N v v c c c c n h x M j k X g l l O o u g k k m j M ",
"e > , 2 > 3 $ p * $ l m   c ~ ..*.:.,.H i.j.j.i.l.i.e.,.:.-.%.} { [ ) v v v N v v c N N C C C Z   k k g o l o ` ` l o g g k . j ",
"; > 9 > : : ; = * # ` k d G ~ { %.;.;.e.p.i.i.e.i.e.,.;.=.%.o.} [ ) c.v v v c b v c N N C C F d M . k u u ` ` ` l O o g g q m 4 ",
"3 ; : ; ; ; 3 = 1 @ O X   c aX| X.=.q.,.e.e.e.H e.w.q.:.-.o.X.{ [ ~ c.v v v c b N c N N C C F d M . q X u o ` O l u o g g q m 4 ",
"0 3 - ; - 0 3 & # @ l X   c ^ [ ..%.:.;.,.,.,.w.,.q.:.=.%.X.} [ [ ~ ~ v N v c v N c c c C C F d   j q k g u l O o u o g g q . j ",
"= 3 = = 3 3 & & $ @ l X   n N ~ { &.-.=.;.;.;.q.;.:.-.%.X.} { [ ~ ~ ^ N c v c N c c c c G G h Z d M . k k u u o o % % k k m j M ",
"1 & sX& & & & $ @ ` o m   h N ~ [ } X.%.-.-.=.=.-.%.o.X.} [ [ ~ ~ v v c c N c N c v b G c c F h d M M . k k u g g X k X X . . . ",
"$ # # 1 # # $ @ + O g .   h v v ) [ X.X.o.o.%.%.o.o.} } [ [ ~ ~ v v v b c c v c v N N N G N G C F Z d M . m m k . q q . . . 4   ",
"< @ @ @ < + + + o X X M   C c v ~ [ { { { o.X.X.} } { [ ) ~ ~ v v v v v c c c c N c c b c b c C C F Z   j j j m j j j . . M M   ",
"+ + + < < O o o o ] . .   h c N ! ~ ) [ [ } } { [ [ [ ~ ~ ^ v v v G c N C c c c c b N N N c c c C C h d   M M j M M M M M     Z "
};
