/* XPM */
static char *_2bc83147d254dd0b60c776971980018HgZEBPNTRFN2CH6V[] = {
/* columns rows colors chars-per-pixel */
"64 64 123 2 ",
"   c #040404",
".  c #0C0C0C",
"X  c #131313",
"o  c #181717",
"O  c #1B1B1B",
"+  c #20201F",
"@  c #242423",
"#  c #282827",
"$  c #2C2C2C",
"%  c #302F2F",
"&  c #31302F",
"*  c #323232",
"=  c #383736",
"-  c #3A3837",
";  c #3D3B3A",
":  c #403E3D",
">  c #42403F",
",  c #454342",
"<  c #494645",
"1  c #4B4947",
"2  c #4D4B49",
"3  c #514E4C",
"4  c #53504E",
"5  c #555351",
"6  c #585654",
"7  c #5B5B5A",
"8  c #605F5D",
"9  c #636363",
"0  c #686867",
"q  c #6B6B6B",
"w  c #706F6E",
"e  c gray44",
"r  c #727272",
"t  c gray46",
"y  c #777777",
"u  c #747474",
"i  c #797979",
"p  c #7C7C7C",
"a  c #7E7E7E",
"s  c #7A7A7A",
"d  c #838383",
"f  c #848383",
"g  c gray52",
"h  c #878685",
"j  c gray53",
"k  c #838383",
"l  c #888888",
"z  c #898989",
"x  c gray55",
"c  c #8D8D8D",
"v  c gray56",
"b  c #8A8A8A",
"n  c #92908F",
"m  c gray58",
"M  c #929292",
"N  c #989797",
"B  c #9A9A9A",
"V  c gray61",
"C  c #9F9F9F",
"Z  c #9B9B9B",
"A  c #A2A2A2",
"S  c gray64",
"D  c #A5A3A2",
"F  c #A5A4A4",
"G  c #A5A5A5",
"H  c gray66",
"J  c #ABABAA",
"K  c gray67",
"L  c #AFAFAF",
"P  c #ABABAB",
"I  c #B1B1B1",
"U  c #B2B2B2",
"Y  c gray71",
"T  c #B6B6B6",
"R  c #B3B3B3",
"E  c gray72",
"W  c gray73",
"Q  c gray74",
"!  c gray",
"~  c gray75",
"^  c #BBBBBB",
"/  c #C0C0C0",
"(  c #C1C1C1",
")  c gray76",
"_  c gray77",
"`  c #C5C5C5",
"'  c #C6C6C6",
"]  c gray78",
"[  c #C3C3C3",
"{  c #CBCBCB",
"}  c gray81",
"|  c #CCCCCC",
" . c #D0D0D0",
".. c #D2D2D2",
"X. c gray83",
"o. c #D5D5D5",
"O. c gray84",
"+. c #D3D3D3",
"@. c #D8D8D8",
"#. c gray85",
"$. c gainsboro",
"%. c gray87",
"&. c gainsboro",
"*. c gray88",
"=. c #E2E2E2",
"-. c gray89",
";. c #E4E4E4",
":. c gray91",
">. c gray93",
",. c #EEEEEE",
"<. c #EFEFEF",
"1. c #EAEAEA",
"2. c gray94",
"3. c #F1F1F1",
"4. c gray95",
"5. c gray96",
"6. c #F3F3F3",
"7. c #F9F9F9",
"8. c #FBFBFB",
"9. c gray99",
"0. c #FDFDFD",
"q. c #FEFEFE",
"w. c #FEFEFE",
/* pixels */
"1 2 1 2 2 2 2 2 4 3 4 3 3 4 3 3 2 5 2 2 3 2 2 2 2 1 2 1 1 1 1 2 1 1 2 2 2 2 2 2 2 3 4 4 4 5 4 5 5 6 5 5 6 5 4 4 4 6 4 4 4 3 3 2 ",
"2 1 2 2 3 2 3 3 3 3 4 4 4 4 4 4 5 2 3 3 5 2 3 2 2 2 2 1 1 1 1 1 1 1 1 2 2 2 2 3 3 3 3 4 4 5 5 5 5 5 5 6 4 6 6 6 6 4 5 4 4 3 3 3 ",
"1 2 2 2 2 2 3 3 4 4 4 4 4 4 4 4 3 5 5 3 2 3 2 2 2 2 1 2 1 1 2 1 1 1 2 1 2 2 2 2 3 3 3 4 4 4 5 5 4 6 6 5 6 5 6 6 5 4 4 4 4 3 3 2 ",
"2 2 2 2 3 3 3 4 4 4 4 4 5 5 5 4 5 5 3 3 3 3 3 2 2 2 2 3 2 1 1 1 1 1 1 2 2 2 2 2 3 3 3 3 3 5 4 5 5 5 5 6 6 6 6 6 6 5 6 4 4 3 3 3 ",
"2 2 3 2 4 3 3 4 4 4 4 6 5 5 5 6 5 5 5 5 3 2 3 2 * > o 3 3 1 1 1 1 1 1 2 2 1 2 2 3 2 3 3 3 5 3 5 6 5 5 6 6 6 6 6 6 5 5 5 4 4 3 3 ",
"1 2 2 2 2 4 4 4 5 5 6 4 5 6 5 5 5 5 5 2 $ 9 . $ + & @ @ 1 1 1 1 1 1 1 1 2 2 2 2 2 2 3 3 3 3 5 5 5 6 6 6 6 6 6 6 6 6 5 4 4 4 3 3 ",
"2 2 2 2 3 3 4 4 4 6 4 6 6 6 4 4 5 5 j # 3 P 7 * * & @ . 2 2 1 1 2 1 1 1 1 2 2 2 3 3 3 3 3 5 5 5 6 5 6 6 6 6 6 6 5 6 5 5 4 4 3 3 ",
"2 2 2 4 4 4 3 4 5 4 5 5 6 3   o 7 * q 3 @.=.q * * * $ o 7 1 1 1 1 1 1 1 1 1 1 2 3 3 3 3 3 5 4 5 5 6 6 6 6 6 6 6 6 6 6 5 4 4 3 3 ",
"2 2 2 3 3 3 4 4 4 6 5 < $ & X > v S ~ *.9.9.) ; * * $ O * 1 1 1 1 1 2 1 1 2 1 2 < 7 3 3 3 5 5 5 5 6 6 6 6 6 6 6 5 5 5 5 4 4 3 3 ",
"2 2 2 3 3 4 4 4 4 5 6 ; o ; @ * 2 { 7.9.q.9.Y : * * * @ . O < 1 1 1 1 1 1 2 * ; 2 T m M 3 3 4 5 5 5 5 6 6 6 6 6 6 5 5 5 4 4 3 3 ",
"2 2 2 2 3 3 3 4 4 6 4 4 o @ * . O I 5.q.q.q.5.t * * * # . . X ; 8 X X = . $ @ * 7 o.8.8.9.G 3 4 5 5 6 6 6 6 6 5 6 5 5 4 4 3 3 2 ",
"2 1 2 2 2 3 3 4 4 4 5 4 + o * O . k 2.9.q.q.2.r * * * $ o - z S B $ # & * * * & = ' 9.8.9.8.G e 4 4 5 5 5 5 5 5 5 5 5 4 4 3 3 3 ",
"1 1 2 2 2 3 2 3 3 4 4 4 & X @ + . 7 X.9.8.8.7.Q ; * * $ O o i ' &.0 * * * * * * ; c 5.8.8.9.,.8 & 5 4 5 5 5 5 5 4 5 5 3 3 3 2 3 ",
"1 1 1 2 2 3 2 3 3 3 3 4 2 o o @ . O X.9.8.8.8.~ : * * * @ O y L 2.p * * * * * & * q 8.8.9.9.' ; > 4 4 5 4 5 4 5 4 5 3 3 3 3 3 2 ",
"1 1 1 1 2 1 1 2 1 3 2 3 2 + X * + * K 4.9.9.@.@.a , * 7 7 X & Y #.J > * & * & * * 3 o.8.^ ' 9 & . 3 4 4 5 4 4 5 3 4 3 3 3 3 2 2 ",
"1 1 1 1 1 1 1 2 1 1 1 4 2 = X + O X k :.c V 2 5 * P } ! H 7 < z O...; * * * * * * * ( @.< ; * * + 8 3 4 3 4 3 3 3 3 3 3 2 2 3 2 ",
"> 1 1 1 > 1 1 1 < 1 1 3 3 3 X o + . j B - * * * q 3.9.9.W e o u ` ;.q * * * * * * = g e * & * * + & 3 3 2 3 3 3 3 3 3 2 2 3 1 2 ",
"> 1 1 > 1 > 1 , < < < < < < O X $ @ ; 2 * * * * 9 3.9.2.} m * y k W q * * * * * * * = * * * * * & ; 2 3 3 3 2 3 2 2 2 2 2 1 1 2 ",
"> > 1 < , , > > , , , , > , O . $ % @ * * * * * : U 9.9.*.C * @ - ; * * * * = * q 7 Q 0 * & * * & . 1 2 2 2 2 2 2 2 2 2 2 1 1 1 ",
"> 1 > > , > , > , > > > > > * X + % @ @ & * * & - R 9.8.*.I 7 O @ * * * 8 7 ( V >.%.7.0 * * * * * # 7 1 1 1 2 2 1 1 2 1 1 1 1 1 ",
"> > > > > > > > : : : : > : - X o $ # @ & * * * * q 5.8.8.Q q . O & * 7 1.;.q.q.8.9.8.K : * * * & + & 2 2 2 2 2 2 4 > 2 1 2 > 2 ",
"> > ; > > ; : : : : : : : : - o X $ # X @ * * * * 9 :.8.3.} v * + # * ^ q.q.q.q.8.9.9.' * * * * * & & 1 < < < 1 > > 3 3 > 2 > 2 ",
"> > > ; ; > ; ; : : : : : : : + . # $ @ * * * * * : ^ 1.8.B 3 # . $ = i 1.q.q.q.q.q.9.4.q * * * * < @ 2 < < < < 2 > 2 > 3 > 2 > ",
"> ; : ; ; ; ; ; - : - - : - : 4 X O * $ X @ * * * - G y 1 & . O X @ & 9 5.q.q.q.q.q.9.7.8 * * * : M v 6 < < < < > 2 > 2 > 2 > 2 ",
"; ; ; ; ; ; ; ; ; ; ; ; : - : 2 X X * % X O * * , q * * * * $ O   O $ : T 8.9.9.9.9.9.7.R : 7 m h 5.k * 3 > > > 2 > > > 3 > > 3 ",
"; ; ; ; ; - ; - ; ; ; - - : - 1 # . $ X . + * * V 9.| < * * & @ X O $ = ^ 8.9.9.5.%.=.v E * Y q.7.2.I 7 > > 2 > 2 > 3 > > > > > ",
"; - ; - ; ; ; ; ; - ; ; - - - : * . @ . X O P a 5.9.5.t * & * # .   $ = 9 | :.g L < 5 * * q 4.9.8.8.&.* > > > > > > > > > > > > ",
"; ; ; - - - - ; ; ; ; - : - - > 4 + O + $ 8 :.9.9.9.7.x = * * $ O X @ & - > 5 * * * * * = ] 9.9.q.8.@.m 6 > > > > > > > > > 3 > ",
"; - - - ; - ; - - - ; - - ; - : 1 @ X * . v  .9.9.9.q.^ ; * * $ O   - 5 } p * * * * * * - t 3.q.q.q.5.f * > > > : : : : > > > > ",
"; - ; - ; - - - ; - - - - - - ; - $ o * . $ T 9.q.q.q...5 * * & # O t V ;.s & * * * * * * r 8.q.q.q.=.I 4 : > : : : : : > > > > ",
"- - ; - - - ; ; - - ; ; ; ; - - - ; $ @ @ * a 3.q.q.;.*.q $ & + X X O P %.` 3 * * * * * * ; ( q.q.5.( l o : : : ; : : : ; : > > ",
"; - - ; - ; - - - ; - - - - - ; - * X + % . 7 1.q.@.U r O . . # + - , z } ` * * * * * * * = ] 3.1.#.H * = : ; : ; ; ; : ; : : > ",
": = = ; ; = ; = - - - ; : - - - ; = X o * o 7 } 9.7 $ 7 o   + 5 0 , . r / 6.l * % * * % * = 9 m b : 9 X : ; ; > ; ; ; ; ; ; ; : ",
"= = : = - ; = ; ; ; - - - - ; - - - o O * $ % ^ K @ > > , ,   5 s 7 $ t P *.t * * * * * % * + . 3 ; ; ; ; : ; ; ; ; = ; ; ; ; ; ",
"- : = ; ; ; ; - ; ; ; - - - - - ; = $ * $ * # 1 @ ; > , , , 5 t k q o O S / m , * * * * + $   2 ; ; ; ; ; ; ; ; ; ; ; ; ; ; ; ; ",
": = : = ; ; ; - - ; - - : - : - - ; $ O @ = $ * $ > > , , , , . 2 5 . * r * 0 * + # . ; $ ; ; ; ; ; ; ; ; ; ; ; = ; = ; ; ; ; ; ",
"= : = : ; ; ; ; ; ; ; - - - : - ; ; * X o * * * 0 > > , , , , 2 * 9 > O 7 >   : & ; ; ; ; ; ; ; ; ; ; ; ; ; ; ; ; ; = ; ; ; ; ; ",
": = : = ; ; ; ; ; ; ; ; : - - - ; = = @ o * * + @ * , > , , < , , , , > : : : : ; : ; ; - - = ; ; ; ; ; ; ; ; ; ; = ; = = ; ; ; ",
"= : = : ; ; ; ; ; ; ; ; - ; : - ; = ; & o + * # . $ < > , , < , , , , , , : : : ; ; ; = ; = = = ; ; ; ; ; ; : ; ; ; ; ; ; ; ; ; ",
": : = : ; : ; ; : ; ; ; : - - ; ; ; ; = X X $ * . X ; > , , , , , , , > > : : : : ; ; ; ; ; ; ; ; ; ; ; : ; ; ; ; ; ; ; ; ; ; ; ",
": : : : : : : : ; ; ; : ; ; ; - ; ; - ; + X $ $ o X : > , , , , , , > > > > : : : : ; ; ; ; ; ; ; ; : ; ; ; : ; ; ; ; ; : : ; : ",
": : : : : : : : : : > : : ; ; ; ; = ; ; = + + $ $ @ * > , , , , , , , , , : : : ; ; ; ; ; ; ; ; ; ; : : : : : : : : : : ; : : : ",
": : > > , : : : > ; > : : - : ; ; ; ; ; < : O & * @ , - > > , , , > , , , > > : : : : ; ; : ; ; : : : : : : : : : : : : : : : : ",
": > , : > : : ; > > ; ; ; : : - ; ; ; ; ; # X $ % % : % < , , , > > , , , > > : : : : : ; : : : : : : : : : > : : : : : > > > : ",
", , , , , , : > > : : > : : : ; ; ; ; ; ; * X @ % % . + < , > , , , , , , , , > > : : : : : : : : : > , > , , > , : > , , > , > ",
"< < < < < , , , , > > > : : : ; : : ; ; : ; ; ; = * O . = > > , , , , , , > > > > > : > : > > > > > > , , , , , , , , , , , , , ",
"1 1 1 1 < < < < , , , , > : : : ; : : ; ; : , < # % # . $ > , > , , , , , , , , , > > : , : , > , , , , < , , , , , , , , , , , ",
"2 2 2 1 2 2 < < < < , , , > : : : : ; ; ; ; ; + X # % X @ > > > , , , , , , , , , , , , , , , , , , , , , , , , , , , , < < , < ",
"2 2 3 3 2 2 2 < 2 < < , : : : : : : : : : : : $ . o $ o . , , , , , , < , , < , , , , , , , , , , , , , < < < < < < < < < < < < ",
"3 3 3 2 3 2 3 2 < < , , , , : , : : : % % : = : @ o # $ o $ ; , , , , , < < , , , , , , , , , , , < 1 2 < 2 < 2 < < 1 1 1 < < < ",
"4 4 4 4 4 4 3 2 < < < < < , , , : : : * : % : : : o X $ O 5 > > , , < , , < < , , , , , , , < < < 1 1 1 < < 2 2 < < 1 1 1 < 1 1 ",
"4 4 5 5 4 4 3 2 2 1 < 2 < < , : : : : : : : : : : $ o O @ 5 3 : , , , , , < , < , < < < < < < < 1 1 1 1 2 2 2 2 < < 1 1 1 1 1 1 ",
"5 5 5 5 4 3 3 2 2 2 2 1 < , , , : : : : : % % : : : $ @ O # $ # , , , < < < , , , < < < < < < < 1 1 2 2 2 2 3 2 1 < 1 1 1 1 < < ",
"5 5 5 5 5 4 3 3 2 2 2 2 < < , , : : : : : : : : : : % # % + # # , , , < < , < < < < < < < 2 < 2 1 2 < 2 2 2 2 2 2 2 1 1 1 1 < 1 ",
"4 5 5 5 5 5 3 3 4 3 2 2 1 < , , : : : : : : * : : : : : , o : @ , , , < < < < < < < < < < < 2 < 1 2 2 2 2 2 2 3 2 2 2 2 2 2 1 1 ",
"5 5 5 6 5 4 3 4 4 3 2 2 1 < , , : : : : : % : : : % : : % . @ % , , , < , < < < , < < < < < < < 1 2 2 2 2 2 2 2 3 2 2 2 2 2 2 1 ",
"4 6 5 5 5 5 4 4 4 3 2 2 1 < , , , : : : : : : : ; ; : ; : @ $ , , , 1 < , , 1 < < < < < < < < 2 1 1 1 2 2 3 3 2 2 2 1 3 2 1 2 1 ",
"4 5 4 6 4 5 4 4 3 3 3 2 2 < < , , : : : : : : : : : : : : - : , , < , < 1 < , 1 < < < < 1 < < 2 1 2 2 2 2 2 2 3 3 2 3 1 2 1 2 1 ",
"5 4 5 4 5 4 4 4 4 3 2 2 2 < < , , > > : : : : : : : : : , , , , , , < < < < 1 < < < < < < < < < 1 1 2 2 2 2 2 2 2 2 3 3 3 1 2 1 ",
"4 5 4 4 5 4 4 4 3 3 2 2 1 < < , , , > : : : : : : , , : , , , , 1 , , 1 < < 1 , < < < < < < 1 2 1 2 2 2 2 3 2 2 2 2 3 2 2 2 2 1 ",
"3 4 3 4 4 4 4 3 3 3 2 2 1 < < < , , > > > > : > : , : , , , , , , < < < < < < < < < < < 1 < < 1 1 1 1 1 < 2 2 2 2 2 2 2 1 2 1 1 ",
"3 3 3 3 3 3 3 2 2 2 2 1 1 1 < < < , , , > , , : , , , , , , , < < < < < 1 < < < < < < < < < < < < 1 1 2 2 2 2 2 2 1 2 1 2 1 1 1 ",
"3 3 3 3 2 3 3 3 2 2 2 1 1 < < < , , , , , , , , , , , , , < , < < < < < 1 < < < < < < < < < < < 1 < 1 1 < 2 < 2 < 2 1 2 1 2 2 1 ",
"2 2 3 3 3 3 2 2 2 2 2 2 1 < < < < < , , < , , , , , , < < , < < < < < < < < < < < < < < < < 1 < < < 1 1 2 < 2 2 < 2 2 1 2 1 1 1 "
};
