/* XPM */
static char *ff3e1eded0da48e3da26363b5ddce06dIKeHVKIgidqfIKAJ[] = {
/* columns rows colors chars-per-pixel */
"64 64 157 2 ",
"   c #3D3B3A",
".  c #5C1B0D",
"X  c #700F04",
"o  c #482716",
"O  c #60380F",
"+  c #742C06",
"@  c #582620",
"#  c #403E3D",
"$  c #784807",
"%  c #42403F",
"&  c #5C4427",
"*  c #403F47",
"=  c #454342",
"-  c #494645",
";  c #4B4947",
":  c #4D4B49",
">  c #514E4C",
",  c #53504E",
"<  c #565351",
"1  c #585654",
"2  c #800F03",
"3  c #900E01",
"4  c #9F0E04",
"5  c #9C1605",
"6  c #A81D08",
"7  c #A81B04",
"8  c #8C3C0B",
"9  c #9C3C1B",
"0  c #A02F0F",
"q  c #B42307",
"w  c #BF2806",
"e  c #B62B0B",
"r  c #A63618",
"t  c #B83312",
"y  c #A83606",
"u  c #8C3226",
"i  c #C80D07",
"p  c #C41B07",
"a  c #CC2605",
"s  c #C32708",
"d  c #C42F0D",
"f  c #D82404",
"g  c #D42B08",
"h  c #DF270B",
"j  c #CA350E",
"k  c #CD3A0D",
"l  c #C03A0A",
"z  c #D03408",
"x  c #DC340A",
"c  c #DC350A",
"v  c #E02907",
"b  c #E82E0A",
"n  c #E6330A",
"m  c #EC370C",
"M  c #E03F0A",
"N  c #EA3E0C",
"B  c #F03F0E",
"V  c #B7480D",
"C  c #AE481B",
"Z  c #BC431C",
"A  c #B4501F",
"S  c #B25609",
"D  c #9C740D",
"F  c #946809",
"G  c #B4700B",
"H  c #BA7A14",
"J  c #984827",
"K  c #9A482C",
"L  c #A4532D",
"P  c #B05C2B",
"I  c #A44B30",
"U  c #9F6038",
"Y  c #C04F06",
"T  c #CB440E",
"R  c #DB400A",
"E  c #C05E0B",
"W  c #DB540A",
"Q  c #C74A19",
"!  c #C7501A",
"~  c #DF581F",
"^  c #D8561A",
"/  c #EB420E",
"(  c #E84B0D",
")  c #F6400F",
"_  c #F44C0E",
"`  c #F6580D",
"'  c #F1520C",
"]  c #F64712",
"[  c #F1471E",
"{  c #F65011",
"}  c #E84315",
"|  c #D8600A",
" . c #E86B0C",
".. c #C85726",
"X. c #C8702E",
"o. c #C76434",
"O. c #9C4F44",
"+. c #985847",
"@. c #A85443",
"#. c #B75443",
"$. c #98705C",
"%. c #946453",
"&. c #BC6758",
"*. c #94706A",
"=. c #A46F69",
"-. c #B06B60",
";. c #B0776C",
":. c #AC7465",
">. c #C26749",
",. c #DC7E46",
"<. c #C4785F",
"1. c #E0725A",
"2. c #AF880A",
"3. c #B89C05",
"4. c #9C8324",
"5. c #B88821",
"6. c #CC9009",
"7. c #D5900E",
"8. c #D8821C",
"9. c #C89C15",
"0. c #E88007",
"q. c #F0970E",
"w. c #F38C09",
"e. c #D0A407",
"r. c #D3BC07",
"t. c #C4A813",
"y. c #F0A10C",
"u. c #F0AC09",
"i. c #E2B017",
"p. c #D8C81B",
"a. c #F0C004",
"s. c #F4C409",
"d. c #E8DC0F",
"f. c #F4D804",
"g. c #F7F003",
"h. c #90807F",
"j. c #AC8070",
"k. c #BE8273",
"l. c #E4805D",
"z. c #ECAC5F",
"x. c #D8966F",
"c. c #C4837D",
"v. c #CE8667",
"b. c #EC8467",
"n. c #A09087",
"m. c #BCA097",
"M. c #9C9CA0",
"N. c #A4A8A8",
"B. c #F79C84",
"V. c #F7A085",
"C. c #C4BCBC",
"Z. c #E8C0AF",
"A. c #B8D0D0",
"S. c #D0C8C0",
"D. c #D8E4E4",
"F. c #E7EEEE",
"G. c #F7F8F8",
/* pixels */
"; : ; : ; > : > > > , > > > > , > > > > : : : : : ; : ; ; : ; ; : ; ; : : : : > : > , , , , , 1 , < < < < < < < < < , , > > > > ",
": ; : : > ; > > > > , , , , , , < > > > > > : : : : ; : ; ; ; ; ; ; : ; : : : > > > > , , , , 1 1 1 1 1 1 < 1 < < < < , , > > : ",
": : : : : > > > > , , , , , , , , > , > > > : : : : : ; ; ; ; ; ; ; ; : ; ; ; > > > > > , , < , , 1 , 1 < 1 1 1 < < < , , > > > ",
"; : : : > > > , > , , , < < < , , < < > > > : > : : : ; : ; ; ; ; ; : ; : > ; : > > > > , , , 1 1 , 1 1 1 1 1 1 < < < < , , > : ",
": : > : > > > , , < < < < < 1 < , < , , , > > : : : : : ; ; ; ; ; ; ; : ; > ; > > > > > , , , < < 1 < 1 1 1 1 1 < < < < , > > > ",
"; : : : > , , , < < < < < < 1 < < < < > , > > > > : : : : ; ; ; ; ; ; ; : ; : ; ; > > > , , < , , 1 1 1 1 1 1 1 1 < < < , , > > ",
": : : > > > , , < < < 1 1 1 1 < < < < < I ] ] : : : : : : ; ; ; ; ; - - ; ; ; > > > ] ] ] , < < 1 < 1 1 1 1 1 1 1 1 < < , , > > ",
": : : > > > , , , < < < 1 < 1 1 < < < < L ` ] ` ] ] ] ] / B B B / ) ) / ) ) / ) ` ] ] { ` { , < < 1 1 1 1 1 1 1 1 < < < , , > > ",
": : : > > , > , < < < 1 < 1 1 < < < < K ! ] ] _ ] ) ) B B B B B ) B B B B B B B ] ) ) _ _ / , , < 1 1 1 1 1 1 1 1 < < < , , , > ",
": : : > > : , < < < < < 1 < 1 1 < < < c N ] B B M B B B B B B B ) / B ) B m B B B B B B B R , , < < < 1 1 1 1 1 1 1 < < , , > > ",
": : : : : , > < , < < < < < < < < , < b b b b b f f f f b v v v v f b f h b b h f f b b n ) , , < < 1 < 1 1 < 1 < < < , , > > > ",
"; : : : > : > > , , , < < < < < < < > f f f M ` ] B B f b b b b b b b b b b b m ] ` M z s ) , , < < < < < < < < < < < , > > > > ",
"; : : : : : , , , , , < < , , , , > > f y $ M ` ` ) ) ) B B B ) ) ) ) ) ) ) B B ] ` ] V $ Y , , , < < < < < < < , < , > > > > > ",
"; ; : : : : : > : : , , , , , , > > w q.G $ ] ` ] ) ) ) B B B ) ) ) ) ) ) ) B B ] ` ] V $ q.V , > , , , < < , < , , , > > > > ; ",
"; ; ; ; ; ; : : : : : : > : : : : : w q.G $ ] ` ] ) ) B ] B B ] ) ) ) ) ) B B B ] ` ] V $ q.Y , , , , , , , , , , , > > > > : : ",
"- - ; ; ; ; ; : : : : : : : : : : ;  .7.E e ` ` m u u @.;.Q *.:.<.<.*.Q +.U #.#.k ` ` ( T & 8.L > > > > , > , , > > > > : > : : ",
"- - - - - - ; - - - - ; ; - - - - - q.2.S s ` ` g * * n.A.X.A.S.Z.Z.A.X.h.h.n.*.0 ` ` ` ` $ q.` : : , > > > > > > > > > : > ; > ",
"- - - - - % - - - - - - - - - - = y.a.$ V { ` ] o G.G.G.G.X.G.D.S.Z.G.Z.C.G.G.G.*.B ` ` ` 0 a.q.: > > : > > : : : : : : ; ; > % ",
"% - % - = = % = = = * * = = = = = a.2.w c ` ` b *.G.G.Z.C.X.S.S.x.X.A.X.Z.G.G.G.n.0 ` ` ` _ $ a.: : : : : : : : : : : : > > : % ",
"% - % % % = % % * # # * * % % % % f.F z ( ` { m #.B.B.1.z.P j.v.,.X.x.~ l.V.B.B.@.d _ ' ` ] + f.4.4.: ; : : : ; ; : ; ; % % : > ",
"= % % = # % % % * *             4.f.O n / ` ../ m ) ] Z s.5.H 7.8.P !  .Z ] [ ] x N ! ^ ` ` . r.a.a.; : : ; ; : % > > % > % > % ",
"% =   %   % %         *         a.u.o f / ` U ] ) ] ] U g.p.p.d.9.J J q.K [ [ ] / ] U ..` ` o 2.a.a.; ; ; ; ; ; > % > > % > % > ",
"# # %   # %                     a.2.$ ` ` ` U B ) ] _ V p.p.p.p.5.J J X.J [ [ ] B ] U ..[ ` $ 2.g.g.; : ; ; ; ; % > > % % > > % ",
"#                               g.g.2.] [ [ K ` ) ] ] J g.p.2.t.5.J X.q.K [ [ ] B B K C V ` 0 g.g.g.; % % ; % ; > % % % > % > % ",
"    #                           g.g.$ ` ' R n.B B ] ] Y p.g.g.f.D o J q.J Y Y ] B ) X.P J ` 7 g.g.g.> % % % % % % % > % % % % > ",
"                                g.g.$ ` ! U Z.N ) ] ] ) _ c R / N B _ R 0 _ ] ] ) ) Z.m.h.` s 2.g.g.% > > > % % % % % % % > % % ",
"                                g.g.8 ` o.$.Z.m n / ) / ( / R R M N / R l / / / n n b.k.h.` g 2.g.g.% % % % % % % > % % % > % % ",
"                                g.g.0 ` >.h.Z.f f R c / c / R c M M / c M M M M f f [ &.h.` b 2.g.g.% % % % % % % % % % % % % % ",
"                                g.p.q ` &.h.U o q 3 3 6 s w q q w w w w 6 s s w 0 U 0 +.h.[ ) 2.g.g.% % % % % % # # % % % % % % ",
"                                g.p.w ` E U J G.A.Z.Z.n.*.n.h.n.h.h.h.h.h.Z.Z.G.G.G.h.$.U [ R 2.p.p.% % # # # # # # # # % % % % ",
"                o               p.p.f ` ! J h.G.G.G.G.G.G.G.G.G.G.G.G.G.G.G.G.G.G.G.Z.&.3 [ R g.a.a.% % # # # #   # #   # # % % ",
"              o               o i.d.w ` Q r N.G.G.G.G.N.n.n.D.F.G.G.G.M.n.M.M.G.G.G.S.-.3 } z p.e.e.% % # #   #     #       # % ",
"                                q.g.0 ` k 6 A.G.G.G.G.h.o o A.D.G.G.G.* o * * G.G.G.A.;.3 M s 2.2.2.  # #     #                 ",
"                                  p.0 _ j 6 A.G.G.G.G.h.o * G.G.G.G.G.h.o * * G.G.G.G.;.3 ] f 2.2.2.    #                       ",
"                  o               2.q / c s h.Z.A.G.G.G.A.G.G.G.G.G.G.G.G.A.A.G.A.Z.h.U 6 ] h 2.  #                             ",
"                                  2.) ] n f f w w 6 6 6 0 0 U U U U U 0 0 6 6 6 s s f v b M B 2.                                ",
"                                  2.m ] ] ] ` ` ` ` ` ` ` ` ` ` ` ` ) ` ` ` ` ` ` ` ` ` ` c ) Y                                 ",
"                                  S B ] / / ` ` ` ` ` ` ' _ c n n x h n M _ _ { ` ` ` ` ` / _ t           # #                   ",
"                                  6 ] ] / / ` ` ` ` ` ` _ ) i i i i i i f ) ) ] ` ` ` ` ` ( _ s       #     #                   ",
"                                  w ] ] / R ` ` ` ] ] i i i i i p w i s f Y Y q.a.q.) ' ` V ` f         #                       ",
"          # # #     #             f ` ] / R ` q.q.q.q.i i i ( c 0.a.c g.q.q.q.q.a.` _ ] ] / ` R                         # #   # ",
"      * * # # # # # #     #       b ` ] m f ] ` q.q.q.g.q.a.a.u.u.a.q.a.q.q.q.q.a.a.` ` ) M ` )     =   =   = #     # #   # # # ",
"        = # # # #   # # #         b { ] M a { _ u.q.q.s.u.a.u.y.y.u. .a.s.s.s.s.u.w.{ _ / M ` )   =   %   =   #   # # # # # # # ",
"    *   # # # # % % #     # #     f ] m x s ] ) g.a.a.q.q.q.q.u.f.g.g.a.V w w i i B ` W Y ) ] B =   =   % # % # # # # # % % # = ",
"= = = * = = = # * # # % =   %     f ] B x w ] B g.s.a.q.q.q.q.u.f.g.g.a.Y s w i i B ` W V ) _ B   % = * # = % = = % % % % % = % ",
"- - - - - - - = = = % %   %       f ] B x w ] B u.f f Y g.g.g.s.| w i i i i i i b ` ` c s ) ) B = = % % = = = = = = = = = = = = ",
"; - - ; ; ; - = = = = % = =   % # f B B j 0 n.B M B ] i s s i i i i i i i i i f ] ` n.%.J ) / B - % % - = - = = - = = = = = - = ",
": : : : ; ; ; ; - - = = = = = %   s b N b f 0 B B ] ] ] f i 4 4 5 4 4 4 w / c _ ` ) w w w ) B b % % - - = - - - - - - - - - = - ",
"> > : : : : : : ; ; - = * = % # # w f b d 0 0 6 ) ) ) ) B B B ) m b B B B B B B B w $ 8 0 B f f - - - - ; - - - ; - - - - - - - ",
"> > > > > > : : ; ; ; * = = = % # q a g t 9 6.O.s / N >.B B B B m m B B B ~ ~ ~ s C 3.H A g a a - - - ; ; ; ; ; ; ; : - - - - - ",
", , , , , > > > : : ; - - = = % # 6 w w r J g.h.3 R M *.B B B B B B ] B B X.X.X.3 U g.i.X.s s w - ; ; ; ; ; ; ; ; ; ; - - ; ; - ",
", < , , , , , > > : : ; - = % % % 3 6 s 7 3 p.G.n.U U r 0 w w s w s s 0 s a w K h.A.p.H 0 6 6 6 ; ; ; ; : : : : : : : : : ; ; : ",
"< , < < < < , > , : : ; - - = = % 3 6 6 5 3 3 J * *.n.c N B M M / N M M B M M h.* o 3 3 3 6 6 3 - : ; : : : > : : : : : : ; ; ; ",
"< < < < < < < , < > : ; - - = = % % 6 3 3 3 3 3 3 2 3 6 6 6 e q q w s 6 6 6 6 3 3 3 3 3 3 3 6 3 - : ; : : : : : : : : : : : : ; ",
"< < < < < < < < , : > : ; - = = % # 3 3 3 3 3 3 3 3 3 3 3 3 3 3 3 3 3 3 3 3 3 3 3 3 3 3 3 3 3 ; ; : : : : : : > : : : : : ; : ; ",
"< < < < < < < , < : : ; ; - = = % % 3 3 3 3 3 3 3 3 3 3 3 3 3 3 3 3 3 3 3 3 3 3 3 3 3 3 3 3 3 ; ; : : : : : > : > : : : : : : ; ",
", < < < < < < , < : , : ; - - = % # % X 2 3 3 3 3 3 3 0 6 6 6 q 6 6 6 6 6 6 6 3 3 3 3 3 3 3 - ; : : * > : > : > : > : : : : : ; ",
", < < , > < < , < : : : ; - - = = % # # @ X 3 3 3 3 3 3 3 3 3 3 3 3 3 3 3 3 3 3 3 4 3 2 X - ; ; * : > : : : > : : : > : : : : ; ",
"< , < < < < < > > : : : ; - - = % % % # # # # # X X X X X X 3 3 3 3 3 X X X X X X : : % - - - ; > : : : : : > : : : : : : : : ; ",
", , < > < > , > : < : : ; - - = - % % % # # # # # # % # = = % - - - = - - - - - : % : * - - ; ; ; ; : , * : : : > : : : : ; : ; ",
"> , , , , , , > , : : : ; ; - - % % - % % % % % # % % = % - % % = - - - - - - - ; # ; ; ; : * ; * : : ; : : : : : > : : : > ; : ",
"> > > > > > > > : : : : ; ; - - - - % - - % % % * % % = - = - - - - - - - - - - - - ; - * : & ; : : * ; : ; ; : ; ; ; : : * ; ; ",
": , : , > > > : : : : ; : - - - - % % - % % % - - % - = = = % - - - - - - - - - ; ; - - ; ; : ; ; : : : : : * : ; : : ; > ; ; ; ",
"> : > : > : : > : : ; : ; - - = % - - % - - % - % - % - - - - - - - - - - - - - ; * - - - - # ; ; % ; ; ; ; > ; : ; ; ; ; ; ; ; "
};
