/* XPM */
static char *ff08fbc1a13741a0d68b62074cdeafa967LH9bQFWbKtA1xN[] = {
/* columns rows colors chars-per-pixel */
"64 64 202 2 ",
"   c #3D3B3A",
".  c #3F3733",
"X  c #700F04",
"o  c #780F04",
"O  c #771807",
"+  c #641A12",
"@  c #661F0F",
"#  c #482716",
"$  c #543217",
"%  c #57251F",
"&  c #60380F",
"*  c #632713",
"=  c #7E311F",
"-  c #7C3D12",
";  c #722D14",
":  c #44332D",
">  c #4D322F",
",  c #54322E",
"<  c #413835",
"1  c #413E3D",
"2  c #473634",
"3  c #533531",
"4  c #583B39",
"5  c #593834",
"6  c #502B23",
"7  c #7A3627",
"8  c #603A37",
"9  c #6D410B",
"0  c #784807",
"q  c #624013",
"w  c #42403F",
"e  c #4E4235",
"r  c #584538",
"t  c #704335",
"y  c #66422E",
"u  c #3F3E44",
"i  c #403F46",
"p  c #454342",
"a  c #494645",
"s  c #4B4947",
"d  c #4D4B49",
"f  c #514E4C",
"g  c #53504E",
"h  c #565351",
"j  c #585654",
"k  c #745C4F",
"l  c #7C7071",
"z  c #6C6B6E",
"x  c #880F02",
"c  c #900E01",
"v  c #9F0E04",
"b  c #881B04",
"n  c #9A1A07",
"m  c #961203",
"M  c #A81D08",
"N  c #A51A06",
"B  c #B31F07",
"V  c #842A0C",
"C  c #963908",
"Z  c #84331F",
"A  c #8B3717",
"S  c #AE2008",
"D  c #A12E0F",
"F  c #A92E0D",
"G  c #AC2206",
"H  c #BF2806",
"J  c #B72708",
"K  c #A93808",
"L  c #A4391C",
"P  c #BA3816",
"I  c #933E24",
"U  c #C80D07",
"Y  c #D31B0A",
"T  c #C61F04",
"R  c #C32506",
"E  c #CC2505",
"W  c #CC2E0A",
"Q  c #D82404",
"!  c #DE2D09",
"~  c #D72404",
"^  c #CE3708",
"/  c #D7360B",
"(  c #C83B17",
")  c #E32C09",
"_  c #E82E0A",
"`  c #E33409",
"'  c #E13F0A",
"]  c #EB3D0D",
"[  c #EC340C",
"{  c #F03F0E",
"}  c #E03F13",
"|  c #C63B23",
" . c #884208",
".. c #964B07",
"X. c #87550B",
"o. c #B04A11",
"O. c #97710A",
"+. c #93680A",
"@. c #AE6C09",
"#. c #B6600C",
"$. c #A5760B",
"%. c #B07C10",
"&. c #934125",
"*. c #984827",
"=. c #9D4429",
"-. c #9A5839",
";. c #865738",
":. c #A0472B",
">. c #A4522A",
",. c #A75527",
"<. c #B1562D",
"1. c #B84632",
"2. c #9F6038",
"3. c #BA642A",
"4. c #B96A32",
"5. c #AA6436",
"6. c #C04F06",
"7. c #CA470C",
"8. c #CE5607",
"9. c #CB4614",
"0. c #DC4215",
"q. c #D1490F",
"w. c #E6420C",
"e. c #E8460D",
"r. c #F5400F",
"t. c #F34D0E",
"y. c #F4530E",
"u. c #F6580D",
"i. c #E64C19",
"p. c #F54511",
"a. c #F64C11",
"s. c #F0471F",
"d. c #F24C1B",
"f. c #ED530F",
"g. c #D4750C",
"h. c #C47212",
"j. c #ED6D0D",
"k. c #D04F37",
"l. c #CF4822",
"z. c #D2662B",
"x. c #C7742B",
"c. c #D47927",
"v. c #E2643F",
"b. c #975B4A",
"n. c #A97A5B",
"m. c #946C63",
"M. c #93756C",
"N. c #8A7261",
"B. c #A26961",
"V. c #AC7769",
"C. c #F76E4A",
"Z. c #AF880A",
"A. c #A08C0D",
"S. c #B99A07",
"D. c #9C9825",
"F. c #C29709",
"G. c #E8830D",
"H. c #F2880E",
"J. c #F2830F",
"K. c #F0970E",
"L. c #EA9016",
"P. c #C3A60A",
"I. c #CDB616",
"U. c #D1B40E",
"Y. c #F1A20A",
"T. c #E0B206",
"R. c #F0B607",
"E. c #D8B023",
"W. c #D8C81B",
"Q. c #D7C814",
"!. c #CAC414",
"~. c #F0C004",
"^. c #F2CC04",
"/. c #E4D505",
"(. c #EADD05",
"). c #E0D215",
"_. c #F6DA06",
"`. c #F0E609",
"'. c #F3EA04",
"]. c #F7F003",
"[. c #90807F",
"{. c #98837A",
"}. c #A98979",
"|. c #9A9494",
" X c #A7A99E",
".X c #BCA097",
"XX c #9AACAE",
"oX c #B2A8A0",
"OX c #AEBCBC",
"+X c #B2B4AA",
"@X c #D2B0A3",
"#X c #EAB687",
"$X c #DCC4B8",
"%X c #E8C0AF",
"&X c #B8D0D0",
"*X c #DAD8D7",
"=X c #D2CFC9",
"-X c #E4CDC3",
";X c #E1D2C8",
":X c #D8E4E4",
">X c #F7F8F8",
",X c #EEECEA",
/* pixels */
"s d d d d f d d f f g f f f f g f f f f f f f s s s s s s s d s s s d s d d d f f f f g h g h h h h h h h j h h h g g g g d f d ",
"d s d d d d f f f f g g g g g g g f f f f d s f f s s d s s s s s s s d d d d f f f f g f h h h h h j h h h h h h h h g g g g f ",
"d s d d d f f f g g g g g g g g g f g f f f d d d d d s s s d s s s s s s d d f f f f h g h h h h h h j j j j j h h h g g g d f ",
"s d d d f f f g g g g g h h h g h h g g f f f d f d d d s s s s d s s d d d d d d f f f g g g h h h j h j j j j j h h g g g g d ",
"d d d d g f f g h h h h h h h j h g h g f f f d d d d s d s s s s s s d s d d d f d f f g g g h h j j j j j j j j h h h g g d g ",
"s d d f d g g g h h h h h h h h h g g g g f f f d d d d d s s s d s s s d s d d d d f f f g h h h h j j j j j j j h h h g g g d ",
"d d d d f f g g g h h h j j j h h h h g f f f f d d d s d s s s s s s s d d d d d f f f g h h h h h j j j j j j h j h h g g g d ",
"d d d g g g f g h h h j h j j j j h h g g g f s f d s d s s s d s s d d e s d d d f f f f g g h j j j j j j j j j j h g g g g g ",
"d d d g d g f g g h h j h j j h j h h g f g f f d d d s d s s s s s d s s d s d d d f f f g g h h j j j j j j j h j j g g g g f ",
"d d d d g d g h h h h j j h j j h h g g g f f d d d d s s s s s s s s s s d d d d d d f f g g g h h j j j j j j j h h g g g g f ",
"d d d f d h h g g h h h h h h h h h g f f f f f d d d s s s s s d s s s s s d s d d d f f g g g g h h j j j j h h h h g g f f d ",
"d s d d d d d g g g h g h h h h g g g f f f f d d d s s s s a s s s s s s s d d d d d f f f g g g h h j h h h j h h h g g f f f ",
"s d d d d d f h f g g g h g g g g f f f d d d d s d s s s s s s s s s s s s s s d d f d f f f g g h h g h j g h g g g g f f d f ",
"s s s d d d d d d f f g g g g g f f f f d d d s s s s s s s a s s s s s s s s d d d d d d f f f g g g h h g g h g g g f g f f d ",
"s s s s s d d d d d d f f d d d f s d s d s s s s s s s a s s s s s s s s s s s d w f d d d f f g f g g g g g g g g f f f f w g ",
"a s s s s s s d d d d d d d d d d s s s s s a a a a a a a a s s a a s s s s s d d d d d d f f d f f f g f g f g f g f f d d f f ",
"a a a a a a a a s s s s s s a a a a a a a a a a a a a a a a a a w s a s s s s s s s s d d d d d d f f f f f f f f f d f d d d d ",
"a a a a p a p a p a p s s p p a a p p p p p p p w a a a a a a a s a a s s s s s s s d s d d d d d f f d d f d d d d f d s d d s ",
"w a w p p p p p p p p p p p p p p p p w p w p p a a w a a s a a s s a a s s s s s s s d d s d d d d s d d d d f d d d s d s s s ",
"w a w p p 1 p w   p p w p i w w p 1 1 p 1 i p p w w a a a w a a w s s a a a s s d s s s s s s s s d s d d d d s d d s s s s s s ",
"p w 1 p   w 1 w p   p p p 1 1   i 1 1 1 1 1 1 w p w a p p a p a s s w s a a s a s s a s s s s s s s s s d s s s s s s d s f s s ",
"w p   w 1 1   1   1   1   1     1   1 1 1 1 1 w w w w a p p a a s s s s a a a a s s a s s s s a s s s s s s s a s s s s s w s w ",
"  w w   1       1 1   1             1     1 1 1 w p p w a p a a s s w s a a s s s s s s a a a s s a s a s a s a a a d r a a s s ",
"            1                               1 1 w w w p I =.:.:.:.:.:.:.:.=.*.7 s w s w a a a s a a a a a a a a s 7 9.+.a a a a ",
"              .                               1 w w w r.u.' W.W.Q.].=.W.W.E.H.d.9.7 [.H e.y.u.u.u.y.w.6.' q.o.f a =.] &.p a p p ",
"                  .                           i 1 1 D u.u.Z.].W.W.].2.]./.%.5.z.l.t a &X[.[.*.R Q p.u.y.y.u.u.a.s.a.w.&.a p w a ",
"  .       .         F ( p.r.J.H.y.u.y.y.y.y.e.E  XOX/ e.p.o.3.3.K.,.2.x.Z.L.c.s.( b..X%X%X%X$X$X@X@X5 _ r.r.p.r.p.p.] I w p p p ",
"            .   t 9.a.G.Y.w.K._.t.t.u.y.u.y.^ B.|.&XQ { e.K >.>.c.l.o.,.<.3.z.s.( V.=X,X%X%X%X%X%X%Xl P r.r.r.{ { { ] &.w p w w ",
"          .   P i.8.L.R.Y.J.R.j.Y Y ` t.y.y.F *X*X,XG ' e.` w.0.} r.e.0.0.i.s.s.l.}.=X-X%X%X%X%X%X%X[.D r.r.{ r.{ { ] I w w w w ",
"          t p.t.! Y.~.~.~.~.~.R U U U Y t.y.D >X>X&X|.R { p.r.r.{ { { { { { ] _ W V.:X>X>X>X>X%X%X%X[.H { r.r.r.{ e.r.I   w w w ",
".     . [.x.r.Q H ].].K.K.~.K.K.' U U Y r.f.*.>Xu [.>X-.~ r.w.o.7.6./ 8.] p.p.{ [ } h.%X&X&X>X>X>X>X[.r.{ r.{ { { { w.I   w   w ",
".     . o.r.Q v v H ].]./ K.~.K.K.U U Y t.y.D >X[.&X>X&X~ -.&X&X&X&X&XOXB.( n.OXM.n.5.H ~ ~ ~ w.s.s._ r.u.p.a.u.u.p./ Z       1 ",
"      { ' { ~ v v v v Q ].].K.K.K.~.H.u.u.y.R *.>X>Xr.6.>X>X>X>X>X>X>X-X=.( [.M.*.o.] t.p.p.R D 0 0 0 # # %.6...; / =           ",
". .   { Q { { [ Q Q Q Q u.~.K.u.u.K.u.u.u.u.e.G [.w.H &X>X>X&X&X&X|.{.<.w.u.p.{ ! C & o 0 0 Z.~.~.~.K.p p K.K.g.x ~ =   .       ",
"    M p.*.x.a.u.s.u.p.a.w._ ' ' w.w.] / ' ] / Q ~ _ *.-.*.#.w.E [ { r.r.] H C X.Q.S.& ~.].].~.~.~.K.K.u p j.G.K b E =           ",
"    N ^ b.1.^ R <.W w.] p.y.t.y.y.t.t.t.t.r.y.r.t.r.{ [ / ^ G 8.#.#.K  .+.P./.(.].].].].~.~.~.~.K.K.H.u.u.j.f.K N ~ =           ",
"    X I M.#X%.E [ ] p.] { C.C.v.] ) _ / _ ) ! ! ) ! R F C $ q ]./.`.).U.U.Q.S.S.'.'.].!.E.E.E.F.h.H.u.u.u.u.q.O S E ;           ",
"      c >.g.F Y [ ' ` k.| ;X-X+Xk.| ) Q E R H H E G b O.).9 Z.`.$.U.`.S.'./.U.P.'./.Q.z |.|.|.k r 9.u.u.u.y.7.@ M B =       .   ",
"      x c M M M H H i D X c c X D i 5 M H M M c 0 W.].].].Z.Z.R.~.~.K.F.T.Z.S.^.A.. z 0 M M x *.[.i # p.u.e.n O n %   .     .   ",
"1     c M x M M H p *.D X # # c X 0 < * M M X 0 ].].].].].].Z.0 0 K.o.$.0 X.x.P.D.u 7 c o # X M *.p #   _ X o x +               ",
"1 1 1 1 c c c M c i =.M c X X X c D i 4 M n Z.].W.0 # ].].].Z.Z.Z.K.Z.T.Z.F.f.+.2 t L X X # X X H u p   X X +             1   1 ",
"1 1 1 1 1 , o c x p e D G M n H J  .u > o X O O x X O ..C - V V V b 9 @.....@.P.i i Z m N o n n F u :   w   w   i   1 < 1   1 w ",
"1 1 p w w 1 , , , 1 u 4  .D D  .4 N.: < % x x c x x x b x x x x X X 0 X.9 $ y 0 : 2 , D H G J D 4 u < w   w   u 1 1 1 1 w   1 1 ",
"i 1 i w p 1 p 1 w 1 i XX XoXoX XXX[.:   < , , , , , 3 > , , , 5 3 3 e e e < 1 2 1 p z m.8 * 8 m.l i   w w w p   1 1 1 i w w 1 p ",
"p p i p p p p 1 p   p i 1                         1 w w w p w p p p p p p w p w w w 1 &X&X&X&X&X1 w 1 p p p p p p w w p w w w p ",
"s a a a p a a p p p p   w w 1 <           1 1   1 1 1 w p 1 p p w p p p p w w w w w 1 w 1 w w 1 p 1 w p p p p p p p p a a p p p ",
"s s s s s a a p p p p p p w 1 1 1   1           1   1 w 1 w p p p p p p p w p p w w w w p w w p w p p p p a p p p p p p p a p p ",
"d d s d s d s a p a p p p w i 1 1 1         1     1   w 1 p 1 p p p p p p a a w p p p p p p p p a p a a p p s s p p s p p a p p ",
"f f s f d d d d s s a i i i 1 1 1                     1 w w 1 p a w a w a w a p w p p p p i p p p a a a s a a s i s s i s a a a ",
"f f f f f f d d s s s i a p e 1 1 1 1                 1 w w 1 p w a w a p a p w a p a p a a a a a a a a s s s s s s s s s a a s ",
"g g f f f f f f d d s s s p a i 1 1                   1 w w 1 p w a a w a a p a p a p a p a a a a s a s s s d d d s s s s s s a ",
"g h g g h g f f f d s s s p p 1 1 1 1                   w w w p w a a w a w a p p a p a a a a a s s d s s d d d d d d s s s s s ",
"h g h h h h g g f f d s a a i w w 1 1                 1 1 1 w p w p p a p a p a a a a a s i r a s s d d d d d d d d d d d s s s ",
"h h h h h h h g f f d s s p a w w 1 1                   1 w w w e s p p a p a a a p a a a s s d s s s d d d d d d d d d d d d s ",
"h h h h h h h h f f f s s a a w 1 1                   1 1 w p p a p p s a a a a a a a a s s s a s d d d d d f f f d d d d d s s ",
"h h h h h h h g g f f d s a a w w 1 1               1 1 w w w p p p p s a a a w a a a a i s a s s d d d d d d d f d d d d d s d ",
"h h h h h h h g g f f s s a a 1 w w w     1       1 1 1 w w w w a p a a a a a a a a a a a s d d d r i f d f d f d d d d d d d i ",
"g g h h h h g g g f f d s a a a a w 1 1 1   1 1 1 1 1 w w w a a p a p a a w a a a a a a a a i s d d f d d d f d d d f d d d d f ",
"h g h g g g g g f f f d s a p p w w w w 1 1 1 1 1 1 w w w a a w p a p a a a a a a a a a a s s s d i d d d d d f f d d d d d d d ",
"g h g h g g g g f f d s s a a a a w w w 1 1 1 1 1 1 w a w w w a a p a a a a a a a a a a a a a s d d f f i d d d d d d d d d f i ",
"g g g f f g f f f f f s s s a p a w w w w w w w w w w a w a w w w a a a a a a a a a a a s a s s d d d d d d d d d d d d d d s d ",
"f f g f f f f f f s f d s s a a w a a w w w a w w w w w a w a a a a a a a a a a a a a a a a i a i d s s d d s d i d d s d d d i ",
"d f f f f s d f s d d s s a a a a w a w a w w w w a a a a a a w a a a a a a a a a a a a a a s a s r s s d d s d d d d d d s d d ",
"f f d f f f s f f s d s s s a a a w a a a w a w a w w a w a a a a a a a a a a a a a a a a a a a s d i s d i d d s d s s s d a d "
};
