/* XPM */
static char *_f6e773ce8924760b5b9cc1d0b9a516bnQmzPG0enCe7DmII[] = {
/* columns rows colors chars-per-pixel */
"64 64 218 2 ",
"   c #3D3B3A",
".  c #700F04",
"X  c #6C1B0C",
"o  c #721E05",
"O  c #482716",
"+  c #543013",
"@  c #78220F",
"#  c #60380F",
"$  c #68261C",
"%  c #7B3410",
"&  c #472E21",
"*  c #46332F",
"=  c #5A342D",
"-  c #413E3D",
";  c #483533",
":  c #553536",
">  c #5A2822",
",  c #783423",
"<  c #673D35",
"1  c #6E2920",
"2  c #784807",
"3  c #6E4A14",
"4  c #42403F",
"5  c #5A4633",
"6  c #714536",
"7  c #403F47",
"8  c #454342",
"9  c #494645",
"0  c #4B4947",
"q  c #4D4B49",
"w  c #514E4C",
"e  c #53504E",
"r  c #565351",
"t  c #585654",
"y  c #6B5A59",
"u  c #7D7171",
"i  c #7E6E6A",
"p  c #800F03",
"a  c #880F02",
"s  c #900E01",
"d  c #9E0E05",
"f  c #9C1605",
"g  c #971504",
"h  c #8C1606",
"j  c #A81D08",
"k  c #A51806",
"l  c #B21305",
"z  c #842B04",
"x  c #942A0A",
"c  c #923907",
"v  c #892618",
"b  c #962A14",
"n  c #88341D",
"m  c #97341D",
"M  c #AE2008",
"N  c #A02F0F",
"B  c #B42307",
"V  c #BF2806",
"C  c #BA2407",
"Z  c #AD3809",
"A  c #B5370C",
"S  c #A5381B",
"D  c #B93B15",
"F  c #B22A12",
"G  c #983D23",
"H  c #803427",
"J  c #C80D07",
"K  c #D21B07",
"L  c #CC1A06",
"P  c #C32506",
"I  c #C72B09",
"U  c #D82404",
"Y  c #D62808",
"T  c #C93809",
"R  c #D43309",
"E  c #D53A0D",
"W  c #DB3409",
"Q  c #C73814",
"!  c #DD3B10",
"~  c #E12D08",
"^  c #E32B09",
"/  c #E03107",
"(  c #E5340A",
")  c #E33D0A",
"_  c #EC3B0D",
"`  c #EA350C",
"'  c #F03F0E",
"]  c #E63C11",
"[  c #C63B23",
"{  c #965C09",
"}  c #9F4012",
"|  c #8B4F0B",
" . c #A44A15",
".. c #BB4119",
"X. c #B75108",
"o. c #97690A",
"O. c #987206",
"+. c #99700B",
"@. c #926013",
"#. c #AF7311",
"$. c #82462B",
"%. c #984827",
"&. c #9F462A",
"*. c #9B4629",
"=. c #985833",
"-. c #A0462B",
";. c #B44B23",
":. c #A5512A",
">. c #B55A2F",
",. c #B95023",
"<. c #B85133",
"1. c #9F6038",
"2. c #A66331",
"3. c #AE7B31",
"4. c #B57028",
"5. c #C74808",
"6. c #D5440B",
"7. c #CB471E",
"8. c #C7461C",
"9. c #D74810",
"0. c #DC411B",
"q. c #C95118",
"w. c #DE5315",
"e. c #D1560A",
"r. c #E6440B",
"t. c #EC430D",
"y. c #EC4C0D",
"u. c #F6410F",
"i. c #F34C0E",
"p. c #F3530E",
"a. c #F6580D",
"s. c #E84415",
"d. c #F54512",
"f. c #F64C11",
"g. c #F0471E",
"h. c #EC560F",
"j. c #CC6707",
"k. c #F2770E",
"l. c #EA790D",
"z. c #C84B25",
"x. c #D46727",
"c. c #C8702E",
"v. c #C27625",
"b. c #CC6329",
"n. c #8C5045",
"m. c #B45242",
"M. c #976853",
"N. c #AB7856",
"B. c #937166",
"V. c #AA7163",
"C. c #AA7269",
"Z. c #C0644F",
"A. c #C67565",
"S. c #AF880A",
"D. c #A08C0D",
"F. c #B89C05",
"G. c #B8970F",
"H. c #B08A11",
"J. c #9C9825",
"K. c #C58F0D",
"L. c #E8830C",
"P. c #F1820F",
"I. c #F2880E",
"U. c #F0970E",
"Y. c #E69211",
"T. c #D4BA09",
"R. c #C3A814",
"E. c #C9A91F",
"W. c #D0B415",
"Q. c #F1A60A",
"!. c #E9B705",
"~. c #F0B607",
"^. c #F2B20A",
"/. c #E4AA0D",
"(. c #CA852A",
"). c #CDAC23",
"_. c #D8C91B",
"`. c #D9C312",
"'. c #DBCB0F",
"]. c #F0C004",
"[. c #F5CF08",
"{. c #E8DC0F",
"}. c #F6DA06",
"|. c #F7F003",
" X c #F4E506",
".X c #90807F",
"XX c #AC8070",
"oX c #C08C47",
"OX c #C1A144",
"+X c #C4B841",
"@X c #D78870",
"#X c #9A9494",
"$X c #AA9E9E",
"%X c #BE9F92",
"&X c #AE9384",
"*X c #B8A080",
"=X c #9C9CA0",
"-X c #9CA6A2",
";X c #AEBCBC",
":X c #ADADA9",
">X c #F09B84",
",X c #C4A89A",
"<X c #D5A590",
"1X c #EAA087",
"2X c #D2B0A3",
"3X c #C6ACA0",
"4X c #DBC3B9",
"5X c #E8C0AF",
"6X c #EACEBC",
"7X c #B8D0D0",
"8X c #C8DADA",
"9X c #DEDADA",
"0X c #C9CECA",
"qX c #E0CCC4",
"wX c #E8EEEE",
"eX c #F7F8F8",
"rX c #F3F6F6",
"tX c #F4EAE6",
/* pixels */
"0 q q q q w q q w w e w w w w e w w w w q q q q 0 q q 0 0 0 0 0 0 0 q 0 q q q w q e e e e e r r r r r t r r r r e e e e e w w w ",
"q 0 q q q q w w w w e e e e e e e e w w w w w q q 0 q 0 q 0 0 0 q 0 0 q q q q q w w e e e e e r r r r r r t t r t r r e e e w q ",
"q 0 q q q w w w e e e e e e e e e e e w w w q q q q q 0 0 0 0 0 0 0 q 0 q q q w q e q e e e r r r r t r r t t t r r e e e w w w ",
"0 q q q w w w e e e e e r r r e e r e w w w w q q q q q 0 q 0 0 0 0 0 q q q q q w q e e e e r r r t r t t t t t t r r e e w w q ",
"q q q q e w w e r r r r r r r t r e r e e w w w q q q 0 q 9 0 0 q q q w 0 q q q w w w e e e r r r t t t t t t t t r r e e e w w ",
"0 q q w q e e e r r r r r r r r r r r e e w w q q q q q q 0 0 0 4 w 4 4 q 0 q q q q q e e e e r r t t t t t t t t t r r e e w w ",
"q q q q w w e e e r r r r t t r r r r e e w w q q q q 0 q 0 0 0 w q 0 q q 0 q q q e q e e e e r r t t t t t t t t r r r e w e w ",
"q q q e e e w e r r r t t t t t r r r e e w w w e q 0 q 0 0 0 q w 4 q w 4 q 0 q q q w w e e r r r t t t t t t t t t r r e e w w ",
"q q q e q e e e e r r t r t t r t e r e e e w q q q 0 q 0 0 0 0 w 4 w w 0 q q q q q w w w e e e r r t t t t t t t r r r e e w w ",
"q q q q e q e e r r r t t r r t r t e e e e w w q q q 0 0 0 0 0 4 w w 4 0 q 0 q q w q w e e e r r r t t t t t t t r r e e e w w ",
"q 0 q w w e e r e r r r r r r t r e e e w w w q q q q 0 0 0 0 0 4 w 4 w 0 0 0 w q q q w w w e e r r r t t t r t r r r r w w w w ",
"0 q q q q q q e e e r e r r r r e e e w w w q q q q 0 0 0 0 0 0 w w 4 w 0 0 0 w q q q w w w e e e r r r t r r r r r r e e w w w ",
"0 q 0 q q q e r e e e e r e e e e w w w w q q q 0 q 0 0 0 0 0 0 4 w w w 4 w w 5 q q q q w w w w e r e r r r r r r e r w w w w w ",
"0 q q q q q q q q q e e e e e e w w w q q q 0 0 0 0 0 0 0 9 0 9 4 w 4 w w 4 4 w 0 q q q q w w w e e e r r r e r r r w w w w w q ",
"0 0 0 0 0 0 q q q q q w w q q q w q q 0 q 0 0 0 9 0 0 0 9 0 0 9 4 w 4 4 w 4 w w q q q q q w w w w e e e e e e e w w w w w w q q ",
"0 9 0 0 0 0 0 q q q q q q q q q q 0 0 9 0 0 9 0 9 0 9 9 9 9 0 0 w 4 w w 4 w w 4 q 0 0 q q w q w w w w w w e e e w w w w q q q q ",
"9 9 9 9 9 9 9 9 0 0 0 0 0 0 9 9 0 9 9 9 9 9 9 9 9 9 9 9 9 9 0 0 4 0 0 q 0 0 0 0 4 q 0 q q q q w q w w w w w w w w w q q q q q q ",
"9 8 9 9 8 9 8 9 9 9 8 9 8 9 9 9 9 8 9 9 9 4 4 9 4 9 9 9 9 9 9 9 q q 4 q 0 0 0 0 q 0 q q q q q q q w w q q w q q q q q q q q q q ",
"8 8 8 8 8 8 8 8 9 8 8 8 8 9 8 9 7 4 9 4 - 9 9 - 9 9 4 9 9 9 9 9 0 4 0 4 0 9 0 0 q q 0 0 0 q 0 q q q q q q q w q q q q q q 0 0 0 ",
"4 8 8 4 4 4 8 4 4 4 4 7 - - - - - 4 - - - - 8 4 4 4 9 9 9 4 9 9 0 q q 4 0 0 0 0 0 0 0 0 0 0 0 0 0 q 0 q q q 0 q q q q 0 0 0 0 0 ",
"8 - G 8 - 4 - 4 - - - - - - - 7 - - - 7 - - 7 4 8 7 4 8 9 9 9 9 4 0 9 0 9 9 9 0 4 0 4 q 0 0 0 0 0 0 0 0 0 0 0 0 0 0 0 0 0 0 0 0 ",
"4 - 6.G - -   - - - - - - - - -   -     - - - G &.G -.-.*.&.&.-.:.-.-.9 9 9 9 9 q 0 0 q 0 0 0 0 0 0 0 0 0 0 0 0 0 0 9 9 0 9 9 9 ",
"- - s.d.F      .{ n $.} q.q.q.q.q.q.D z.7 2.7.' g.b.>.>.b.,.x.x.>.5.d.7.9 9 q 5 q q 4 q 0 0 9 9 0 0 0 0 0 0 0 0 0 9 9 9 9 9 9 9 ",
"- - g.d.y.q.q.h.h.0.w.h.a.u.W ;.>.V.3X<   :.g.g.<.Y.1.=.:.%.Y.:.=. ._ a.m 0 0 q 4 4 q 4 4 0 9 0 0 8 8 0 8 0 8 8 9 8 8 9 9 9 9 9 ",
"-   < u.f.a.f.f.f.f.f.R 6 V.%X<X<X2X4X,X,X%.g.g.1.W.).E.@.H.`.#.E.#.! f.t.u & v  . ...D 8.7.7.7.7.7.7...8 9 8 9 9 8 8 9 8 8 8 9 ",
"    2.' u.u.u.u.u.u.' | u 2X4X5X5X5X5X5X5X%.g.g.| 3._.{.3.T._.H. XW.r.p.` 2X-XG t.y.p.p.p.p.a.a.d.P.P.d.q.8.Q m 8 8 8 8 8 8 8 8 ",
"    5 u.u.u.u.' u.d.^ B.2X5X5X5X5X5X0X0X5X%.g.g.#.)._._.3.(.(.v.^.(.t.f.Y 5X#XB.A 6.i.a.a.a.U.Q.Q.U.}.P.W d.d.w.@.7 4 4 8 8 8 8 ",
"    ; u.' ' u.u.' g.Y B.5X5X5X5X5X5X7X7X5X%.g.g.S._._._.3.c.c.c.U.c.' d.U 5XB.#Xx T y.a.a.a.Q.~.~.U.|.U.U d.p.h.3.7 4 4 4 4 4 8 ",
"    g.t.' ' ' u.u.d.U .X5X5X5X5X5X5X5X5X7X%.g.d.p.f.d.d._ u.' d.' u.d.6.V eXeXeX*.8.r.a.d.K X.L.U.U.U.|.U k l / a.r.6 4 4 4 4 4 ",
"    ) u.' u.' ' u.u.d.2.5X5X5X7XrXrXeXeXeX%.' u.t._ t.u.u.u.' ' u.) ' P 1.7X7XeXM.,.) a.K J J l.].U.U.].|.U L d K i.e.$.- 4 - 4 ",
"    R u.' u.u.' u.u.u.&.7XeXeXeXrX7X5Xc.c.( ' ' ' ' ) 0.I X.P U U u.' d 5X7XO eXB.m._ a.K J J U U.U.U.5.~.|.!.l d l f.m.y 4   4 ",
"      ( d.y.y.y.d.d.d.u.g.g.r.~ ~ U I M.XX#X%X8X#X' 1.3X8X8X8X8X8X$X[ :.tXeX$XeX:.D r.a.) K J J U /.].Q.Q.}.[.L.l l R h.,.6   - ",
"      U u.B X.X.E 9.5.e.9.R 6.r.u.u.;.V.,X:XqX9X;XW -.2XeXeXeXeXeXeX$XQ 1XtXrX9XM I y.a.a.r.U L R j.~.~.~.Q.^.!.T k Y d.] m 4 4 ",
"      x _ g | K.j.{ { { { c | Z 5.9.6.R T N S V.C.D ^ *X0X9XwXwXwXeXeXN.I 1X9XB.I E y.a.a.a.p./ U.~.P.U.U.~.~.U.T C _ ] ! R = - ",
"        ^ P c U.U.U.U.U.U.~.].K.O.O.| + O #.5.6.E ] _ z.V.V.3X,X3X6X6X:X*._ V.k r.y.p.p.p.p.p.p.l.L.` L.l.P.P.k._ f.f.s.! R = - ",
"        ( U % I.U.I.U.I.U.U.~.]. X X|.+.3 |.F.O.O.X.T 6.W ` ) W ) 5.6.>.;.~ ~ I r.t.t.r.r.) r.r.y.r./ r.` _ t.s.0.) ] ,.q.6.= * ",
"      @ U P . a.k.a.k.a.U.U.U.~.!.~.|.|.{.|.|.|.|.{.H.+.% c X.e.X.x X.V ( d.) t.r._ _ ' ` _ i.i.i.d.f.a.d.d._ ! 8.I X.oXB.m =   ",
"      1 K B p e.a.a.a.a.k.U.@.OXOX).J.|.|.|.|.|.T.{.{.`.G.+.F.T.T.# #.z k I U W Y R U Y U / ( ^ @X>X@X` ` ' ' _ ] W #.OXM.v =   ",
"        P f s c a.a.a.a. .oX#X:X:X-X=X+XD.|.|.|.R.{.F.'.'.K.|.F.F.# R.F.#.@ l K V V P P Y Y <.A.&X<X,X<.A.W W U R R Z X.N g =   ",
"        k s s . a.a.a.S ; B.%XC.C.C.&X#X* D.|.|._._.o.R.).H.{.o.G.2 R.|.{.D.z d B C C C P m y B.n b m y XXH G P P C j f f v *   ",
"    -   $ $ s . A ) } O 7 M.m p @ h z M.7 * D.|.R./.H.W.K.+.R.o.^.#.{.|.|.|.F.| h f j B x : 5 @ p X X . N 6 < n B k k f s 1 - - ",
"  - - - - - s . . U 4 O 7 %.j . O . s b 7 7 O |.S.U.S.!.K.| S.2 U.c.|.|.|.|.|.S.. a f B $ - 3 X s O O . N -.$.: j k f k s $ - - ",
"4 4 4 4 - 4 - . . .   7 7 V . . O . . j %.7 O |.S.2 2 K.{ R.H.2 U.S.|.|.2 O S.|.|.F.z k : 9 n g . . . s j *.$.: g k s s $ - - - ",
"4 4 8 4 4 7 - 8 4 7 - 7 7 C . . s s . I 2 7 ; |.S.H.a.x.| 4.c.p.c.2 H.|.|.. . . 2 2 # X : 7 n f s . j . C 2 3 7 : s s . > 4 - 7 ",
"8 8 8 8 8 4 4 4 8 - - O 8 x j j . j k C 7 7   2 c 2 2 R.F.| O . . . . . . . s s s p . . * 8 3 B P j j V b 8 7 8 = a > 4 4 4 4 8 ",
"0 9 9 8 9 9 9 9 8 8 8 - 8 7 N P P P x O 7 O     O O O O 3 2 . h s s s s s s s s s s s s = & i r 2 N N 2 7 7 7 8 8 8 8 8 8 8 8 8 ",
"0 0 0 0 9 0 9 8 8 8 8 8 8 .X.X7 O 7 #X7X7       - -   4   4 4 8 9 8 8 8 8 8 8 8 4 4 4 4 8 4 u ;X7X7X7X7X7X8 9 8 8 8 8 8 8 8 8 8 ",
"q q q q 0 0 0 9 9 8 8 8 7 8 7X7X7X7X7X              - - 4 4 4 8 8 8 9 4 8 8 8 4 8 8 8 8 7 4 4 8 9 8 9 9 8 9 9 9 9 9 9 9 9 8 9 9 ",
"w w q q q q q 0 0 0 9 7 7 4 - - -   -                   4 4 4 8 4 9 4 9 9 4 8 8 8 8 8 8 7 9 9 8 8 9 9 9 7 0 0 0 0 0 7 q 9 9 9 9 ",
"w w w w w w w q 0 0 0 7 9 4 7 8 -                     - 4 4 4 4 4 4 9 4 8 9 9 4 8 8 8 9 8 9 7 9 9 9 9 9 0 0 0 0 0 0 0 0 0 9 9 0 ",
"r w w w w w w w q q 0 0 0 0 4 4 - -                   - - 4 4 8 9 4 4 9 9 9 8 9 8 9 8 8 8 0 9 9 9 9 9 0 0 0 0 q 0 0 0 0 0 0 0 9 ",
"w r r r e r w w w q 0 0 5 9 4 4 4 4                     4 4 4 4 4 9 9 8 9 4 9 8 8 9 0 8 0 8 9 9 q 0 0 q q q q q 0 q q 0 0 0 0 0 ",
"r r r r r r e w w w w 0 8 9 8 7 4 -                   - - - 4 8 9 4 9 9 8 9 8 9 9 9 9 9 0 9 0 9 9 q 0 q 0 q q q q q q q q 0 0 0 ",
"r r r r r r r w w w q 0 0 8 9 8 4 4 -                 - - 4 4 4 4 9 4 9 9 8 9 9 9 8 9 9 7 0 9 0 9 q q q q q q q q q q q q 0 0 q ",
"r r r r r r r r w w w 0 0 9 8 7 - -                   - - 4 8 8 4 4 9 9 9 9 9 9 9 9 9 9 0 9 9 0 q q q q q q q w q q q q q q q 0 ",
"r r r r r r r w w w w 0 0 9 9 4 4 -                   - 4 4 4 8 0 9 4 9 8 9 9 8 9 9 9 9 0 8 0 0 9 q q q q w q w q w q q q q 0 q ",
"e r r r r r r w w w w 0 0 0 8 8 4 - - -             - - 4 4 8 8 4 0 4 q 0 0 4 q 0 0 9 5 9 9 0 0 q w q q q w w w q w q q q q q 7 ",
"e r r e w r r r w w w q 0 8 9 8 8 - - - - - -   - - - 4 4 8 4 8 0 4 0 4 4 0 q 4 0 9 9 7 9 9 0 0 q 7 q q q q q q q q q q q q w w ",
"r e r r r r w e w w w q 0 0 8 8 8 8 4 4 - - - - - - 4 4 4 8 8 8 4 0 4 9 4 q 0 4 4 9 4 0 0 0 9 0 0 q q q q w q q q q q q q q w 7 ",
"e e r w r w r w w w w q 0 0 0 8 8 4 4 4 - - - - - 4 8 4 4 8 8 8 0 4 0 0 q 4 0 q 0 0 0 0 9 9 0 0 w 7 q e 7 q q q w q q q q q q q ",
"e e e e w w w w w q q q 0 0 8 8 8 4 8 4 4 4 4 4 4 4 8 8 4 q 4 0 4 q 4 q 0 0 4 q 9 0 0 0 0 0 0 5 5 q q q q q q q q q q q q 7 w q ",
"w w w w w w w w w w q 0 0 0 8 0 8 9 8 4 4 8 4 4 8 4 4 8 4 q 5 0 q 4 q 4 4 q 4 0 4 0 4 0 9 7 0 0 q 7 0 0 q q q q q 0 q 0 q q 0 q ",
"0 w w w 0 w w w q q w 0 0 9 0 9 9 4 8 8 9 4 8 8 4 8 8 8 4 4 4 q 4 q 4 q q 4 q 0 0 0 9 9 9 0 0 0 q 7 0 0 q 0 q q 0 q 0 q q 0 q 7 ",
"w w w w w w q q q q q 0 0 0 9 9 8 9 9 4 9 8 4 8 9 8 8 9 q 4 q 4 4 q q 4 0 q q 4 9 7 9 9 9 9 7 0 0 0 0 0 7 q 0 0 q 0 q 0 0 0 0 q "
};
