/* XPM */
static char *cb60d782c20948478947499942963438Q5QzQxQJvMCWhTsT[] = {
/* columns rows colors chars-per-pixel */
"64 64 163 2 ",
"   c #3D3B3A",
".  c #700F04",
"X  c #6C1B0C",
"o  c #482716",
"O  c #762614",
"+  c #70381F",
"@  c #403E3D",
"#  c #582726",
"$  c #703625",
"%  c #784807",
"&  c #42403F",
"*  c #6C4437",
"=  c #77493F",
"-  c #403F47",
";  c #454342",
":  c #494645",
">  c #4B4947",
",  c #4D4B49",
"<  c #514E4C",
"1  c #53504E",
"2  c #565351",
"3  c #585654",
"4  c #800F03",
"5  c #900E01",
"6  c #881F0A",
"7  c #8C1606",
"8  c #9C1605",
"9  c #981F08",
"0  c #981C05",
"q  c #A81D08",
"w  c #A81B04",
"e  c #842B04",
"r  c #8C3C0B",
"t  c #903308",
"y  c #9C3807",
"u  c #842C16",
"i  c #9F3614",
"p  c #9C371B",
"a  c #9E2B0B",
"s  c #A02F0F",
"d  c #BF2806",
"f  c #B92B0A",
"g  c #B73807",
"h  c #AC3F18",
"j  c #8A2B27",
"k  c #9C3E2B",
"l  c #943928",
"z  c #8E3126",
"x  c #C80D07",
"c  c #D01906",
"v  c #C02106",
"b  c #CC2605",
"n  c #D82404",
"m  c #D42609",
"M  c #CF3B0B",
"N  c #CE3609",
"B  c #D63509",
"V  c #E82E0A",
"C  c #E5330A",
"Z  c #EF370D",
"A  c #E03F0A",
"S  c #E83F0C",
"D  c #F03F0E",
"F  c #974A09",
"G  c #9F4012",
"H  c #B35209",
"J  c #BA5A0F",
"K  c #AC4C17",
"L  c #B14A0B",
"P  c #957D1E",
"I  c #B4700B",
"U  c #BC7C15",
"Y  c #AA680F",
"T  c #804727",
"R  c #864C27",
"E  c #8D4227",
"W  c #984827",
"Q  c #9A472B",
"!  c #9C5430",
"~  c #A04824",
"^  c #A2482E",
"/  c #A4542D",
"(  c #B05C2B",
")  c #A44B30",
"_  c #986A25",
"`  c #9F6038",
"'  c #B46833",
"]  c #C04F06",
"[  c #CB440E",
"{  c #DB400A",
"}  c #D04708",
"|  c #DC540A",
" . c #C7501A",
".. c #CA581C",
"X. c #C44C1A",
"o. c #EB420E",
"O. c #EB4C0C",
"+. c #F6400F",
"@. c #F54C0E",
"#. c #F6580D",
"$. c #F4520D",
"%. c #F64612",
"&. c #F0471F",
"*. c #F65010",
"=. c #E45E09",
"-. c #DC6706",
";. c #D8730A",
":. c #CC6612",
">. c #E36B09",
",. c #E27906",
"<. c #F3780E",
"1. c #F36F10",
"2. c #C44823",
"3. c #CB5C23",
"4. c #DC5C27",
"5. c #C8702E",
"6. c #985847",
"7. c #946453",
"8. c #B86045",
"9. c #AC7857",
"0. c #C87A6A",
"q. c #AF880A",
"w. c #A08C0D",
"e. c #B89C05",
"r. c #9F8627",
"t. c #B88821",
"y. c #A29327",
"u. c #D48A10",
"i. c #EC9807",
"p. c #E29006",
"a. c #F0970E",
"s. c #E48715",
"d. c #DCA005",
"f. c #D2A407",
"g. c #D3BC07",
"h. c #C4A813",
"j. c #F0AC09",
"k. c #D09C25",
"l. c #D8C81B",
"z. c #F0C004",
"x. c #F4C409",
"c. c #F4D804",
"v. c #E8DC0F",
"b. c #F7F003",
"n. c #90807F",
"m. c #BC906B",
"M. c #AC8070",
"N. c #B48C77",
"B. c #E4805D",
"V. c #CB8C70",
"C. c #C0A07F",
"Z. c #BCA097",
"A. c #A4A8A8",
"S. c #C89483",
"D. c #C8A090",
"F. c #E0B493",
"G. c #C4BCBC",
"H. c #E8C0AF",
"J. c #B8D0D0",
"K. c #D0C8C0",
"L. c #F0DCD4",
"P. c #D8E4E4",
"I. c #F7F8F8",
/* pixels */
"> , > , , , < , < < 1 < 1 < < < < < < < < < > > > > , > > > > , > > > , , , , , < < < 1 2 2 2 2 2 2 2 2 2 2 2 2 2 2 1 1 < < < < ",
", > , , , , < < < < 1 1 1 1 1 1 2 < < < < , < > < > , > > > > > > > , > , , , < < < 1 < 1 1 1 2 2 2 2 3 2 3 3 2 2 2 2 1 1 < < < ",
"> , , , , < < < < 1 1 1 1 1 1 1 < < < < < < < < , > > , > > > > > > > , > , , , < < < 1 1 1 2 2 2 2 2 3 3 2 3 3 2 2 2 1 1 < < > ",
", , , , < < < 1 1 1 1 1 3 1 3 1 2 2 2 < < < , , < < , > , > > > > , > , > , , < , < < < 1 1 2 2 2 2 2 3 3 3 3 3 2 2 2 2 1 < < < ",
"> , , , 1 < < 1 1 1 3 1 3 2 2 2 2 2 2 2 < < < < > , , > , > > > : , : , , , , , , 1 < < 1 1 1 2 3 2 2 3 3 3 3 3 3 2 2 1 1 1 < < ",
", , , < < 1 1 1 2 2 2 2 3 2 2 3 2 2 < 1 < < < < , < , , > > > > > : , > > , , , , < < < < 1 2 2 2 3 3 3 3 3 3 3 3 2 2 2 1 1 < < ",
", , , , < < 1 1 1 2 1 3 2 3 3 2 2 2 2 1 < < < > , , , > , > > > > > : > > > , , , , < 1 1 1 2 2 3 2 3 3 3 3 3 3 3 3 2 2 1 1 < < ",
", , , < < < 1 1 2 2 2 3 3 3 3 3 2 2 2 1 1 < < < , , > j j j j j j j p l R R R E l < , , 1 1 1 2 2 3 3 3 3 3 3 3 2 3 2 2 1 1 < < ",
", , , < , 1 1 2 1 3 2 3 3 3 3 2 3 1 1 1 1 1 < < , , , x x x x x x x c n ] ] ] N n , , < < < 2 2 2 3 3 3 3 3 3 3 3 3 2 2 1 1 < < ",
", , , < , < < 1 1 2 2 3 3 2 2 ) ) l ^ / / / ^ Q z W W | | | -.-.-.-.-.,.d.d.d.p.=.r.r.y./ / ) ^ Q l = 3 3 3 3 2 3 2 2 2 1 1 < < ",
", , , < 1 1 , 2 1 3 2 2 2 3 2 o.D n A #.#.#.+.C n { o.i.a.a.x.x.z.z.z.z.b.b.b.x.a.z.z.b.#.#.%.%.o.m k 2 3 3 3 3 2 2 2 1 < < < < ",
"> , , , , , 1 1 1 1 1 1 2 2 #.#.#.D @.#.a.a.z.z.z.z.x.i.z.j.a.a.a.a.j.z.z.z.a.j.z.a.a.a.a.a.#.@.+.o.*.#.O.{ 3 2 2 2 2 1 1 < < < ",
"> , , , , , < 1 1 1 < 2 Q k #.O.O.o.@.#.1.1.z.z.z.j.j.s.j.j.;.;.;.>.>.-.-.-.| | -.;.;.a.<.<.#.#.@.S O.#.@.o.1 2 2 2 1 < < < < < ",
"> > > , , , , , , < < < V V #.S o.o.@.#.%.%.z.z.z.a.a.5.a.a.] ] H o.n x x x x x x ] ] a.#.#.#.#.#.A O.#.@.+.1 1 1 1 1 < < < < , ",
"> > > > > , , , , , , < n n %.A o.B O.#.#.#.z.j.a.o.B x x x x x x x x x x x x c n %.%.#.#.#.#.#.#.A O.#.@.o.1 1 < 1 < < < < , , ",
"; > > > > > > , , , , , n n %.A { { O.#.#.#.z.j.a.{ o.x x x x x x x x x x x x c n @.%.#.#.#.#.#.#.A O.#.$.o.1 1 < < < , < , , , ",
"> ; : : : : : : > > : : n n %.A A A O.#.#.#.D D +.%.%.% 5.5.] W Q 5.k.l.l.l.l.s.&.%.%.D %.%.#.#.#.A O.#.*.+.1 < < < , < , < > , ",
"; > : : ; : : : : ; : : n n %.D D D &.&.D D D D %.&.&.o a.a.a.W Q l.l.l.q.q.b.g.q.&.&.D D %.%.%.%.A o.%.C n , < , > < , > > , > ",
"; ; ; & ; ; & & ; ; ; ; n n %.D D D %.&.D D D %.%.&.&.o a.a.a.W W l.l.l.q.q.b.g.q.&.&.D D D %.%.%.A o.%.C n , , , , , , > , > > ",
"; ; ; - ; & ; & ; & ; & n n o.%.D s ~ ` D D D %.%.&.&.W 5.5.W W W q.q.q.l.l.l.t.~ &.&.D D D 5.( W D o.+.C n > > > , > > > > > > ",
"& & @ @ @ & @ & @ @ & @ n n o.+.Z 6 ~ ` D D D +.%.&.&.W 5.5.Q W W q.q.q.l.l.l.t.Q &.&.+.D D 5.( W D D D C n > > > : > > > > > : ",
"& @ @ @ @ @ @ @ @ @ @ @ d d o.+.D Z.D.H.D D D %.%.&.&.o a.a.W - ; l.v.b.l.l.l.t.Q &.&.+.+.+.H.Z.n.A S D C n > > > > > > > > : : ",
"& @ @ @   @ @   @ @     d d n +.D 9.G.I.+.+.D +.%.&.&.o a.a.a.q.q.l.h.q.` ` b.g.q.&.&.+.D +.H.K.J.n C D C n ; > : : : : : > > : ",
"@ @   @       @         d d n +.m A.G.I.+.D D %.%.&.&.o a.a.a.q.q.l.h.q.` ` b.g.q.&.&.o.o.&.H.K.J.n C D C n ; > : : : > & : > & ",
"@                       w w n +.Z n.Z.H.+.+.+.%.%.&.&.&.5.5.5.5.5.5.5.5.W W q._ W @.%.D %.D H.K.J.A A A B b > & & : & > & & > & ",
"                        t t v +.D n.N.V.D D +.+.%.&.&.&.4.4.4.4.4.4.4.4.2.2.:...2.+.%.D D D B.S.A.A A A L y & : : & > & & > & > ",
"                        % % s D D n.9.5.D D D D D &.&.&.&.&.&.&.&.&.&.&.&.&.&.&.&.+.+.+.D D D 8.n.A A A L % & & & & & : & & & > ",
"                        q.q.5.#.$.a R Z.%.%.5 X o o o ^ W W - - - W * - W W Q + o o o . D D S.= W #.@.+.g % & & & & & & & & & & ",
"                        % w.5.#.#.p 7.n.&.%.5 X o o o Q W W - - - W * - W W W + o o o . +.+.n.7.W #.@.+.L % @ @ @ @ & & & & & & ",
"                o       l.l.H #.*.a 9.P.%.%.n.G.I.I.I.I.5.5.I.H.H.H.L.I.H.H.H.L.I.I.I.n.q q H.V.W #.{ b y % @ @ @ @ @ @ & & & & ",
"                        l.l.H @.%.{ 8.3 &.&.n.G.I.I.I.I.5.5.I.H.H.5.F.I.H.H.H.L.I.I.I.J.m n J.m.] #.[ a U l.@ @   @ @     @ & & ",
"            o           l.l.H o.%.{ 8.Z.&.&.n.G.I.I.I.I.5.5.I.H.H.5.F.I.H.H.H.L.I.I.I.J.n n J.m.] #.[ a U l.  @       @   @ @ & ",
"                        b.b.% o.o.#. .W ] ] Z.G.I.I.I.I.5.5.I.H.H.5.F.I.H.H.H.L.I.I.I.J.d d ` 3.#.%.s o w.b.  @                 ",
"                        b.b.% B B #. .W ] ..3 G.I.I.I.I.5.5.I.H.H.5.F.I.H.H.H.L.I.I.I.J.d d ` 3.#.%.h o w.b.                    ",
"                        l.l.. D +.#.*.%.C V Q D.I.I.I.I.5.5.I.H.H.5.F.I.H.H.H.L.I.I.I.n.n n %.*.#.%.i o P l.                    ",
"                    r.z.b.b.q.5 5 #.#.#.+.+.s S.I.I.I.I.5.5.I.H.H.H.L.I.H.H.H.L.I.I.I.` V V %.*.#.a r % e.b.b.                  ",
"                    P g.c.c.f.e e O.$.#.@.@.v V.P.I.I.I.5.5.I.H.H.H.L.I.H.H.H.L.I.I.I.~ Z Z *.*.$.6 F I f.c.c.                  ",
"                    P j.z.z.z.% % o.O.#.#.#.n 0.J.I.I.I.5.5.I.H.H.H.L.I.H.H.H.L.I.I.I.s +.+.#.*.%.. H a.j.j.z.                  ",
"                    w.j.z.z.a.% % % H #.#.#.+.Z V 5.5.5.5.5.J.n.n.5.C.J.5.5.5.' ` ] ] +.#.#.#.{ d % I a.j.a.j.                  ",
"                    r.z.z.z.a.% % % H #.#.#.+.Z V 5.5.5.5.5.J.n.n.5.C.J.5.5.5.' ` ] ] +.#.#.#.{ d % I a.a.a.x.                  ",
"    @ @ @   @ @ &   _ a.a.a.W ; - o i #.#.#.#.@.+.+.+.+.V V V V V V V V V V %.D D D D %.#.#.#.[ s a.a.a.a.a.a.@         @ @ @ @ ",
"    @ @ @ @ @ @   @ _ a.a.a.! T * X s M [ [ M B C Z C o.V V V V V C C V V V Z Z Z Z V B [ [ M f 9 -.p.a.a.a.a.@     @ @ @   @ @ ",
"  @ & @ @ & @ @ @   _ a.a.a.` ] ] 8 8 w s s f d n n n B V V V V C o.C V V V V C V n n q s s q 8 5 ] ;.a.a.a.a.& @ @ @ @ @ @ @ @ ",
"@ & & ; & & @ @ & @ / #.a.a.a.s s . . . W E . . . . . W . . . . . W u . . . . . . . . . W W . . . . H a.a.a.#.& @ @ @ @ & & @ @ ",
"; ; ; ; ; ; ; & @ @ ~ #.a.a.a.s s . . . W W . . . . . W . . . . . W u . . . . . . . . . Q Q . . . . H a.i.a.#.& & & & & & & : & ",
"> ; > ; : ; ; ; ; ; ~ #.a.a.] . . 5 5 5 s s w 8 5 q q W 5 5 5 5 5 a 9 5 5 5 s s s 5 5 5 W Q 5 5 5 . e s :.a.#.& : & : & & & & : ",
"> > > > > > > ; ; ; & - #.#.q 5 5 ] K W W W . . . 5 5 i 5 5 5 q q s 9 5 5 5 s s s . . . s s s r % 5 8 q g H #.; : ; & : : & : & ",
", , , , > > > > : > ; ; #.#.w 5 5 ] K W W W . . . 5 5 a 5 5 5 q q a 9 5 5 5 s s s . . . s s s r % 5 8 q g H #.: : : : : : : : : ",
", , < , , , , , > : : : S D 5 % % z.u.W &.&.&.p o o o 5 5 5 5 5 5 5 5 5 5 5 5 4 . - - &.&.&.D 4.5.5.h 5 w v #.> : : > : : : : : ",
"< < < < < < , , > , > - D D 5 % % z.t.W &.&.&.p o o o 5 5 5 5 5 5 5 5 5 5 5 5 4 . - - &.&.&.&.4.5.5.h 5 q v #., > > > > > : : : ",
"1 1 1 < 1 < 1 , , , , : d d 5 % % l.U y W W a O o . . 5 5 5 5 5 5 5 5 5 5 5 5 4 . - - s Q Q s Y q.q.F . 7 w > > > > > > > > > : ",
"1 1 2 2 1 1 1 1 , , , > 5 5 m d d d d d d d d d f n n n n n n n n b b n n n n b d d d d d f d f d d b n v w < > , , > , > > > > ",
"2 2 2 2 2 2 1 1 < < , > 5 5 c v v v v d d f v v d n n n n n n n n v b n n n n b d v v b v v v N d d b n d s > < , , , , , > > > ",
"2 2 2 2 2 2 1 1 < < , , - - f ] ] H } o.B O.] ] ] B { o.] ] { o.{ ] ] ] ] ] ] ] H ] ] H ] H ] ] ] 5. .v 8 . < , , , , , > , > , ",
"1 2 2 2 2 2 2 2 < < , , - - 7 H ] p.p.i.i.i.d.d.d.i.i.i.d.d.i.i.i.d.d.u.d.d.d.d.d.d.d.d.d.d.d.d.d.k.] 0 O # > , , , , , , , , > ",
"2 2 2 2 2 2 2 1 < < , , - - . ] ] x.c.b.b.b.b.b.b.b.b.b.b.b.b.b.b.b.c.j.b.b.b.b.b.b.b.b.b.b.b.b.b.j.I . # - , < , < , , , , > , ",
"2 2 2 2 2 2 2 1 1 < , , - - - - - . 6 s @     $ s s s s s s s s y s s s s s s s s s s > : > s s s - - - - - < < , < , , , , , : ",
"< 2 2 2 1 2 1 1 < < , , - - - - - . 6 s @ @   $ s s s s s s s y s s s s s s s s s s s ; : : s s s - - - - - , , , , , , , , , , ",
"2 1 1 2 2 1 1 1 < < < , , : ; ; ; & & & @ @ @ @ @ @ & & ; ; & > : ; : : : : : : ; > > > : > > > , , , - , , , , , , , , , , , : ",
"2 1 1 1 2 1 1 < < < < , , : > ; ; & & & @ @ @ @ @ & & & & : & & : : ; : : : : : > > ; ; : : : > , , , , , , , , < , < , > , > , ",
"< < 1 1 < < 1 < < < , > : , ; ; ; & ; & & & & & & & ; ; & & > > : > : : : : : : , ; > > & > > : - , - < , , , , , , , , , , , : ",
"< < < < < < < < , , , , , ; ; > : & ; ; & ; ; & ; & ; ; : & & > : & : : : : : : ; ; ; > > > - > , , > , , , , , : , , , , > > , ",
", < < < < , , < , , , > > > , ; & : ; ; : & ; & : & ; ; : : & : & > : : : : : : - * @ > > > : > > > > > > > > , , > : , , , : , ",
"< < < < < < , , < , , , > , ; > : : : & : ; & : & ; ; : & : > : : : : : > : : : > > > > > & : : > - > > > > > , > > , > : : , : "
};
